<?xml version="1.0" encoding="UTF-8"?>
<svg version="1.1" xmlns="http://www.w3.org/2000/svg" width="136" height="145">
<path d="M0 0 C3.5 0.125 3.5 0.125 4.5 1.125 C4.5927833 2.50660115 4.61747043 3.89288038 4.61352539 5.27758789 C4.61341209 6.59884422 4.61341209 6.59884422 4.61329651 7.9467926 C4.60813522 8.90407761 4.60297394 9.86136261 4.59765625 10.84765625 C4.5962413 11.82286728 4.59482635 12.79807831 4.59336853 13.80284119 C4.58775133 16.93109143 4.57519593 20.05927123 4.5625 23.1875 C4.55748722 25.30273334 4.55292393 27.41796781 4.54882812 29.53320312 C4.53777631 34.73049296 4.52102146 39.92774145 4.5 45.125 C-1.125 46.25 -1.125 46.25 -4.5 45.125 C-4.63277344 44.29355469 -4.76554687 43.46210937 -4.90234375 42.60546875 C-5.07894531 41.51878906 -5.25554687 40.43210938 -5.4375 39.3125 C-5.69853516 37.69408203 -5.69853516 37.69408203 -5.96484375 36.04296875 C-6.43871921 33.07566644 -6.43871921 33.07566644 -7.5 30.125 C-8.16 30.125 -8.82 30.125 -9.5 30.125 C-9.5 29.135 -9.5 28.145 -9.5 27.125 C-10.16 27.125 -10.82 27.125 -11.5 27.125 C-14.5 23.66346154 -14.5 23.66346154 -14.5 21.125 C-15.16 21.125 -15.82 21.125 -16.5 21.125 C-16.5 20.465 -16.5 19.805 -16.5 19.125 C-17.82 18.795 -19.14 18.465 -20.5 18.125 C-20.5 17.465 -20.5 16.805 -20.5 16.125 C-36.21489432 10.55234244 -47.02869967 10.63703534 -62.5 17.125 C-62.5 17.785 -62.5 18.445 -62.5 19.125 C-63.16 19.125 -63.82 19.125 -64.5 19.125 C-64.5 19.785 -64.5 20.445 -64.5 21.125 C-65.16 21.125 -65.82 21.125 -66.5 21.125 C-66.5 21.785 -66.5 22.445 -66.5 23.125 C-67.16 23.125 -67.82 23.125 -68.5 23.125 C-68.83 24.445 -69.16 25.765 -69.5 27.125 C-70.16 27.125 -70.82 27.125 -71.5 27.125 C-72.16 29.435 -72.82 31.745 -73.5 34.125 C-74.16 34.125 -74.82 34.125 -75.5 34.125 C-75.5 35.445 -75.5 36.765 -75.5 38.125 C-76.16 38.125 -76.82 38.125 -77.5 38.125 C-77.56058594 39.04023437 -77.62117188 39.95546875 -77.68359375 40.8984375 C-77.76738281 42.08695313 -77.85117188 43.27546875 -77.9375 44.5 C-78.01871094 45.68335938 -78.09992188 46.86671875 -78.18359375 48.0859375 C-78.5 51.125 -78.5 51.125 -79.5 53.125 C-79.59678195 54.98759608 -79.63075842 56.85364231 -79.6328125 58.71875 C-79.63410156 59.83121094 -79.63539062 60.94367188 -79.63671875 62.08984375 C-79.63091797 63.83974609 -79.63091797 63.83974609 -79.625 65.625 C-79.62886719 66.79160156 -79.63273437 67.95820312 -79.63671875 69.16015625 C-79.63478516 70.82884766 -79.63478516 70.82884766 -79.6328125 72.53125 C-79.63112061 74.06749023 -79.63112061 74.06749023 -79.62939453 75.63476562 C-79.66652296 78.12545289 -79.66652296 78.12545289 -78.5 80.125 C-78.26827173 82.67115009 -78.08105471 85.19896225 -77.9375 87.75 C-77.89431641 88.45640625 -77.85113281 89.1628125 -77.80664062 89.890625 C-77.70055249 91.63518537 -77.59977111 93.38006697 -77.5 95.125 C-76.84 95.125 -76.18 95.125 -75.5 95.125 C-74.00178941 98.49597383 -73.5 100.32942119 -73.5 104.125 C-72.84 104.125 -72.18 104.125 -71.5 104.125 C-70.55598958 105.8828125 -69.61197917 107.640625 -68.66796875 109.3984375 C-67.45236507 111.43002365 -67.45236507 111.43002365 -64.5 113.125 C-64.5 113.785 -64.5 114.445 -64.5 115.125 C-63.819375 115.393125 -63.13875 115.66125 -62.4375 115.9375 C-60.27415695 116.81204293 -58.13073998 117.73627679 -56 118.6875 C-45.71573178 122.91139587 -34.82784678 121.67563764 -24.5 118.125 C-19.20605062 115.72229983 -12.18900234 112.50300468 -9.5 107.125 C-8.84 107.125 -8.18 107.125 -7.5 107.125 C-7.5 106.465 -7.5 105.805 -7.5 105.125 C-6.84 105.125 -6.18 105.125 -5.5 105.125 C-5.5 103.805 -5.5 102.485 -5.5 101.125 C-2.6875 100 -2.6875 100 0.5 99.125 C1.985 100.115 1.985 100.115 3.5 101.125 C4.00427005 105.56257643 3.07554134 108.98920399 1.5 113.125 C0.84 113.125 0.18 113.125 -0.5 113.125 C-0.5 113.785 -0.5 114.445 -0.5 115.125 C-1.82 115.455 -3.14 115.785 -4.5 116.125 C-4.5 116.785 -4.5 117.445 -4.5 118.125 C-7.32903963 120.37026955 -10.44124359 122.2089674 -13.5 124.125 C-14.08394531 124.51300781 -14.66789062 124.90101563 -15.26953125 125.30078125 C-29.36919501 134.18597082 -51.2628354 134.37249772 -67.11767578 131.0480957 C-78.01484641 128.32722295 -90.45698751 123.19299079 -98.5 115.125 C-98.5 114.465 -98.5 113.805 -98.5 113.125 C-99.16 113.125 -99.82 113.125 -100.5 113.125 C-100.5 112.465 -100.5 111.805 -100.5 111.125 C-101.16 111.125 -101.82 111.125 -102.5 111.125 C-102.5 110.465 -102.5 109.805 -102.5 109.125 C-103.16 109.125 -103.82 109.125 -104.5 109.125 C-107.21682385 105.38936721 -108.36726461 101.56880808 -109.5 97.125 C-110.16 97.125 -110.82 97.125 -111.5 97.125 C-112.81626692 93.50526598 -113.5 91.02932869 -113.5 87.125 C-114.16 87.125 -114.82 87.125 -115.5 87.125 C-118.23200453 56.87780703 -118.23200453 56.87780703 -113.5 46.125 C-112.84 46.125 -112.18 46.125 -111.5 46.125 C-111.5 44.145 -111.5 42.165 -111.5 40.125 C-110.84 40.125 -110.18 40.125 -109.5 40.125 C-109.231875 39.073125 -108.96375 38.02125 -108.6875 36.9375 C-107.62747781 33.53427088 -106.58611696 30.99341082 -104.5 28.125 C-103.84 28.125 -103.18 28.125 -102.5 28.125 C-102.5 27.465 -102.5 26.805 -102.5 26.125 C-101.84 26.125 -101.18 26.125 -100.5 26.125 C-99.84 24.805 -99.18 23.485 -98.5 22.125 C-97.84 22.125 -97.18 22.125 -96.5 22.125 C-96.30019531 21.56683594 -96.10039063 21.00867188 -95.89453125 20.43359375 C-93.94664425 17.20894048 -91.21427454 15.32289959 -88.1875 13.1875 C-87.56665527 12.74728516 -86.94581055 12.30707031 -86.30615234 11.85351562 C-80.43284583 7.83579898 -74.32049687 5.16604644 -67.5 3.125 C-66.29214844 2.76148438 -65.08429688 2.39796875 -63.83984375 2.0234375 C-58.5788259 0.75069126 -53.3270389 0.7414736 -47.9375 0.75 C-46.87772949 0.75161133 -45.81795898 0.75322266 -44.72607422 0.75488281 C-33.19255142 0.93402387 -23.15851411 3.59655497 -12.6484375 8.390625 C-10.16319341 9.24012662 -8.10856326 9.25313995 -5.5 9.125 C-5.355625 7.825625 -5.21125 6.52625 -5.0625 5.1875 C-4.50398406 0.16085657 -4.50398406 0.16085657 0 0 Z " fill="#ED0000" transform="translate(127.5,8.875)"/>
<path d="M0 0 C3.5 0.125 3.5 0.125 4.5 1.125 C4.5927833 2.50660115 4.61747043 3.89288038 4.61352539 5.27758789 C4.61344986 6.15842545 4.61337433 7.039263 4.61329651 7.9467926 C4.60813522 8.90407761 4.60297394 9.86136261 4.59765625 10.84765625 C4.5962413 11.82286728 4.59482635 12.79807831 4.59336853 13.80284119 C4.58775133 16.93109143 4.57519593 20.05927123 4.5625 23.1875 C4.55748722 25.30273334 4.55292393 27.41796781 4.54882812 29.53320312 C4.53777631 34.73049296 4.52102146 39.92774145 4.5 45.125 C-1.125 46.25 -1.125 46.25 -4.5 45.125 C-6.11729417 41.44933144 -5.56546005 37.05260325 -5.5 33.125 C-2.13661956 36.48838044 -1.5 39.41335716 -1.5 44.125 C-0.18 44.125 1.14 44.125 2.5 44.125 C2.5 30.265 2.5 16.405 2.5 2.125 C1.18 2.125 -0.14 2.125 -1.5 2.125 C-1.603125 2.90875 -1.70625 3.6925 -1.8125 4.5 C-2.5 7.125 -2.5 7.125 -5.5 9.125 C-4.50398406 0.16085657 -4.50398406 0.16085657 0 0 Z " fill="#130000" transform="translate(127.5,8.875)"/>
<path d="M0 0 C0.33 0.66 0.66 1.32 1 2 C0.34 2 -0.32 2 -1 2 C-1 2.66 -1 3.32 -1 4 C-1.66 4 -2.32 4 -3 4 C-3 4.66 -3 5.32 -3 6 C-3.66 6 -4.32 6 -5 6 C-5.33 7.32 -5.66 8.64 -6 10 C-6.66 10 -7.32 10 -8 10 C-8.66 12.31 -9.32 14.62 -10 17 C-10.66 17 -11.32 17 -12 17 C-12 18.32 -12 19.64 -12 21 C-12.66 21 -13.32 21 -14 21 C-14.06058594 21.91523437 -14.12117188 22.83046875 -14.18359375 23.7734375 C-14.26738281 24.96195313 -14.35117187 26.15046875 -14.4375 27.375 C-14.51871094 28.55835937 -14.59992187 29.74171875 -14.68359375 30.9609375 C-15 34 -15 34 -16 36 C-16.09678195 37.86259608 -16.13075842 39.72864231 -16.1328125 41.59375 C-16.13474609 43.26244141 -16.13474609 43.26244141 -16.13671875 44.96484375 C-16.13285156 46.13144531 -16.12898438 47.29804687 -16.125 48.5 C-16.12886719 49.66660156 -16.13273437 50.83320312 -16.13671875 52.03515625 C-16.13542969 53.14761719 -16.13414063 54.26007813 -16.1328125 55.40625 C-16.13168457 56.43041016 -16.13055664 57.45457031 -16.12939453 58.50976562 C-16.16652296 61.00045289 -16.16652296 61.00045289 -15 63 C-14.76970044 65.37123246 -14.58880058 67.74741943 -14.4375 70.125 C-14.35371094 71.40632813 -14.26992188 72.68765625 -14.18359375 74.0078125 C-14.12300781 74.99523437 -14.06242187 75.98265625 -14 77 C-19.61179903 71.38820097 -19.30024514 58.04514293 -19.3125 50.4375 C-19.10176487 34.26820037 -17.02893225 16.109648 -5.05859375 4.04296875 C-3.42411902 2.63302792 -1.71857484 1.30611688 0 0 Z " fill="#200000" transform="translate(64,26)"/>
<path d="M0 0 C0.8353125 0.556875 0.8353125 0.556875 1.6875 1.125 C1.90028058 5.59339215 1.27888085 8.94762526 -0.3125 13.125 C-0.9725 13.125 -1.6325 13.125 -2.3125 13.125 C-2.3125 13.785 -2.3125 14.445 -2.3125 15.125 C-3.6325 15.455 -4.9525 15.785 -6.3125 16.125 C-5.6525 15.485625 -4.9925 14.84625 -4.3125 14.1875 C-1.5239171 9.91748244 -2.01195537 7.15912252 -2.3125 2.125 C-5.2825 5.095 -8.2525 8.065 -11.3125 11.125 C-11.9725 10.795 -12.6325 10.465 -13.3125 10.125 C-12.6525 9.135 -11.9925 8.145 -11.3125 7.125 C-10.6525 7.125 -9.9925 7.125 -9.3125 7.125 C-9.3125 6.465 -9.3125 5.805 -9.3125 5.125 C-8.6525 5.125 -7.9925 5.125 -7.3125 5.125 C-7.3125 3.805 -7.3125 2.485 -7.3125 1.125 C-2.88173077 -1.09038462 -2.88173077 -1.09038462 0 0 Z " fill="#040000" transform="translate(129.3125,108.875)"/>
<path d="M0 0 C0.66 0.33 1.32 0.66 2 1 C-1.48654652 5.19475128 -4.9736414 9.08389253 -9.1875 12.5625 C-12.88182768 15.67577809 -14.88215785 18.67607227 -17 23 C-17.6875 21.3125 -17.6875 21.3125 -18 19 C-16.6875 16.25 -16.6875 16.25 -15 14 C-14.34 14 -13.68 14 -13 14 C-13 13.34 -13 12.68 -13 12 C-12.34 12 -11.68 12 -11 12 C-10.34 10.68 -9.68 9.36 -9 8 C-8.34 8 -7.68 8 -7 8 C-6.6596875 7.13375 -6.6596875 7.13375 -6.3125 6.25 C-4.66961977 3.4336339 -2.60466773 1.91922886 0 0 Z " fill="#800000" transform="translate(38,23)"/>
<path d="M0 0 C0.56589844 0.71414062 1.13179687 1.42828125 1.71484375 2.1640625 C7.95612791 9.90965618 13.89280201 16.51183791 22.5546875 21.5625 C24.8414171 22.90677555 26.91194369 24.36840251 29 26 C21.54580207 24.89518138 14.45257795 20.08907276 9 15 C9 14.34 9 13.68 9 13 C8.34 13 7.68 13 7 13 C7 12.34 7 11.68 7 11 C6.34 11 5.68 11 5 11 C5 10.34 5 9.68 5 9 C4.34 9 3.68 9 3 9 C0.56839395 5.63316085 0 4.26649636 0 0 Z " fill="#110000" transform="translate(20,109)"/>
<path d="M0 0 C0.33 0 0.66 0 1 0 C1.25394531 1.12277344 1.50789062 2.24554688 1.76953125 3.40234375 C3.52510668 11.0688698 5.30782083 18.59650728 8 26 C7.34 25.67 6.68 25.34 6 25 C6 24.34 6 23.68 6 23 C5.34 23 4.68 23 4 23 C2.68373308 19.38026598 2 16.90432869 2 13 C1.34 13 0.68 13 0 13 C0 8.71 0 4.42 0 0 Z " fill="#1C0000" transform="translate(12,83)"/>
<path d="M0 0 C3.36338044 3.36338044 4 6.28835716 4 11 C5.32 11 6.64 11 8 11 C8 11.66 8 12.32 8 13 C5.69 12.67 3.38 12.34 1 12 C-0.3271261 8.0186217 -0.06915913 4.14954773 0 0 Z " fill="#150000" transform="translate(122,42)"/>
<path d="M0 0 C0.66 0 1.32 0 2 0 C1.79503906 1.09957031 1.59007812 2.19914062 1.37890625 3.33203125 C-0.12560098 11.54037736 -1.47749439 19.65792767 -2 28 C-2.33 28 -2.66 28 -3 28 C-3.32125023 7.54706861 -3.32125023 7.54706861 0 0 Z " fill="#070000" transform="translate(14,55)"/>
<path d="M0 0 C0 3 0 3 -1.96875 5.26171875 C-2.8040625 6.06222656 -3.639375 6.86273438 -4.5 7.6875 C-5.3353125 8.49574219 -6.170625 9.30398437 -7.03125 10.13671875 C-7.6809375 10.75160156 -8.330625 11.36648437 -9 12 C-9.66 11.67 -10.32 11.34 -11 11 C-10.34 10.01 -9.68 9.02 -9 8 C-8.34 8 -7.68 8 -7 8 C-7 7.34 -7 6.68 -7 6 C-6.34 6 -5.68 6 -5 6 C-5 4.68 -5 3.36 -5 2 C-3.35 1.34 -1.7 0.68 0 0 Z " fill="#200000" transform="translate(127,108)"/>
<path d="M0 0 C3.88997191 1.49746706 5.46948052 3.70422078 7.75 7.125 C8.67039062 8.49011719 8.67039062 8.49011719 9.609375 9.8828125 C10.29773438 10.93082031 10.29773438 10.93082031 11 12 C10.67 12.66 10.34 13.32 10 14 C9.67 13.01 9.34 12.02 9 11 C8.34 11 7.68 11 7 11 C7 10.01 7 9.02 7 8 C6.34 8 5.68 8 5 8 C2 4.53846154 2 4.53846154 2 2 C1.34 2 0.68 2 0 2 C0 1.34 0 0.68 0 0 Z " fill="#170000" transform="translate(111,28)"/>
<path d="M0 0 C1.134375 0.020625 2.26875 0.04125 3.4375 0.0625 C3.4375 0.3925 3.4375 0.7225 3.4375 1.0625 C1.7875 1.0625 0.1375 1.0625 -1.5625 1.0625 C-1.665625 2.01125 -1.76875 2.96 -1.875 3.9375 C-2.5625 7.0625 -2.5625 7.0625 -5.5625 9.0625 C-4.56445312 0.08007813 -4.56445312 0.08007813 0 0 Z " fill="#020000" transform="translate(127.5625,8.9375)"/>
<path d="M0 0 C0.66 0 1.32 0 2 0 C0.18690997 3.77727089 -1.9073259 7.37269822 -4 11 C-4.6875 9.3125 -4.6875 9.3125 -5 7 C-3.6875 4.25 -3.6875 4.25 -2 2 C-1.34 2 -0.68 2 0 2 C0 1.34 0 0.68 0 0 Z " fill="#120000" transform="translate(25,35)"/>
</svg>
