<?xml version="1.0" encoding="UTF-8"?>
<svg version="1.1" xmlns="http://www.w3.org/2000/svg" width="940" height="345">
<path d="M0 0 C1.14614777 -0.00637985 2.29229553 -0.0127597 3.47317505 -0.01933289 C5.33859451 -0.02100212 5.33859451 -0.02100212 7.24169922 -0.02270508 C9.17249832 -0.02769768 9.17249832 -0.02769768 11.14230347 -0.03279114 C13.87775507 -0.03878622 16.6131751 -0.04063123 19.34863281 -0.04003906 C22.12213769 -0.03995851 24.89547492 -0.04678173 27.66894531 -0.06054688 C76.88566662 -0.30116974 76.88566662 -0.30116974 89.42138672 10.14526367 C89.42138672 10.80526367 89.42138672 11.46526367 89.42138672 12.14526367 C90.01951172 12.39276367 90.61763672 12.64026367 91.23388672 12.89526367 C95.38435392 15.26695921 96.84858039 18.78598945 98.42138672 23.14526367 C101.1980771 34.91534567 100.17528121 43.28501766 94.83544922 54.01635742 C93.27830045 56.36068361 91.80590001 57.66800544 89.42138672 59.14526367 C88.76138672 59.14526367 88.10138672 59.14526367 87.42138672 59.14526367 C87.42138672 59.80526367 87.42138672 60.46526367 87.42138672 61.14526367 C71.86595837 69.94861048 57.84129034 70.60471016 40.42138672 70.14526367 C40.56218155 70.69207794 40.70297638 71.23889221 40.84803772 71.80227661 C42.1749054 77.28346685 42.71399833 82.38546056 42.72998047 88.01245117 C42.75510071 89.65568449 42.78049919 91.29891358 42.80615234 92.94213867 C42.8350444 95.49649282 42.8591086 98.05077421 42.87768555 100.60522461 C42.8992677 103.09547342 42.93864718 105.58496355 42.97998047 108.07495117 C42.98009628 108.84056366 42.9802121 109.60617615 42.98033142 110.39498901 C43.03398866 114.49837662 43.03398866 114.49837662 44.78686523 118.10839844 C47.10005646 119.57578053 49.21988752 119.8337658 51.92138672 120.20776367 C55.59993362 120.72691344 57.26680063 121.04220628 60.42138672 123.14526367 C59.42138672 126.14526367 59.42138672 126.14526367 57.42138672 127.14526367 C55.39979746 127.24188921 53.37497086 127.2732288 51.35107422 127.2746582 C50.07635254 127.27781036 48.80163086 127.28096252 47.48828125 127.28421021 C46.09098272 127.28242037 44.69368451 127.2803694 43.29638672 127.27807617 C41.86914046 127.27874953 40.44189431 127.27971982 39.01464844 127.28097534 C36.02196156 127.28245083 33.02930451 127.28030255 30.03662109 127.27563477 C26.19629543 127.26993756 22.35603965 127.27321736 18.51571655 127.27920723 C15.56810986 127.28281687 12.62051979 127.2816724 9.6729126 127.27907944 C8.25669344 127.27841128 6.84047278 127.27923471 5.42425537 127.28155899 C3.44673694 127.28409205 1.46921323 127.27954824 -0.50830078 127.2746582 C-2.19802002 127.27346481 -2.19802002 127.27346481 -3.921875 127.27224731 C-6.57861328 127.14526367 -6.57861328 127.14526367 -8.57861328 126.14526367 C-8.57861328 124.82526367 -8.57861328 123.50526367 -8.57861328 122.14526367 C-7.68658203 121.97510742 -6.79455078 121.80495117 -5.87548828 121.62963867 C-4.70501953 121.38729492 -3.53455078 121.14495117 -2.32861328 120.89526367 C-1.16845703 120.66323242 -0.00830078 120.43120117 1.18701172 120.19213867 C4.85982161 119.00335479 6.11439627 118.21244602 8.42138672 115.14526367 C8.82801533 112.33463771 9.00277627 109.90111277 8.99560547 107.09057617 C9.01685234 105.92182449 9.01685234 105.92182449 9.03852844 104.72946167 C9.08037875 102.24292221 9.09564603 99.75710529 9.10888672 97.27026367 C9.13805284 94.79090274 9.17275483 92.31171998 9.21138 89.83248901 C9.23365331 88.29214528 9.2496015 86.75169278 9.25822449 85.21121216 C9.29933184 81.07746653 9.70753788 77.20968137 10.42138672 73.14526367 C10.50830539 71.27175625 10.55193878 69.39578488 10.55419922 67.52026367 C10.55548828 66.48385742 10.55677734 65.44745117 10.55810547 64.37963867 C10.55230469 62.77862305 10.55230469 62.77862305 10.54638672 61.14526367 C10.55025391 60.07791992 10.55412109 59.01057617 10.55810547 57.91088867 C10.55681641 56.87448242 10.55552734 55.83807617 10.55419922 54.77026367 C10.55307129 53.8344043 10.55194336 52.89854492 10.55078125 51.93432617 C10.47883219 49.11737832 10.47883219 49.11737832 9.91918945 46.26782227 C9.34294912 42.65324953 9.30909056 39.21930218 9.32373047 35.55932617 C9.32514542 34.85754242 9.32656036 34.15575867 9.32801819 33.43270874 C9.33357382 31.21184863 9.34611779 28.99109283 9.35888672 26.77026367 C9.36390746 25.25594222 9.36846936 23.74161917 9.37255859 22.22729492 C9.38352865 18.53325115 9.40076223 14.83926761 9.42138672 11.14526367 C8.76138672 11.14526367 8.10138672 11.14526367 7.42138672 11.14526367 C7.09138672 10.15526367 6.76138672 9.16526367 6.42138672 8.14526367 C5.04853516 7.94610352 5.04853516 7.94610352 3.64794922 7.74291992 C2.45943359 7.56631836 1.27091797 7.3897168 0.04638672 7.20776367 C-1.72865234 6.94672852 -1.72865234 6.94672852 -3.53955078 6.68041992 C-6.57861328 6.14526367 -6.57861328 6.14526367 -8.57861328 5.14526367 C-8.57861328 3.82526367 -8.57861328 2.50526367 -8.57861328 1.14526367 C-5.45858192 0.10525322 -3.27319696 0.01237828 0 0 Z M40.42138672 9.14526367 C40.58437256 9.86989807 40.7473584 10.59453247 40.9152832 11.34112549 C41.39187388 13.98174363 41.53612153 16.33454139 41.51904297 19.01147461 C41.51573975 19.9488446 41.51243652 20.8862146 41.5090332 21.85198975 C41.50073486 22.85111389 41.49243652 23.85023804 41.48388672 24.87963867 C41.4801001 25.91340637 41.47631348 26.94717407 41.47241211 28.01226807 C41.46021326 31.30664262 41.44157083 34.60092895 41.42138672 37.89526367 C41.39491098 42.24421943 41.37487602 46.59313319 41.35888672 50.94213867 C41.35058838 51.94935974 41.34229004 52.95658081 41.33374023 53.99432373 C41.33043701 54.91908508 41.32713379 55.84384644 41.32373047 56.79663086 C41.31849365 57.61427917 41.31325684 58.43192749 41.30786133 59.27435303 C41.21476821 61.15963873 41.21476821 61.15963873 42.42138672 62.14526367 C49.04352424 62.0953794 55.12147614 61.34998452 60.04638672 56.56713867 C66.10099598 49.87213804 66.7847112 44.13027067 66.79638672 35.33276367 C66.82087891 34.37305664 66.84537109 33.41334961 66.87060547 32.42456055 C66.89740908 25.88001245 65.78831239 21.76789647 62.42138672 16.14526367 C61.76138672 16.14526367 61.10138672 16.14526367 60.42138672 16.14526367 C60.42138672 15.48526367 60.42138672 14.82526367 60.42138672 14.14526367 C59.34888672 13.50588867 58.27638672 12.86651367 57.17138672 12.20776367 C56.56810547 11.84811523 55.96482422 11.4884668 55.34326172 11.11791992 C51.78233255 9.31574236 48.62850027 9.02457083 44.67138672 9.08276367 C43.47255859 9.09629883 43.47255859 9.09629883 42.24951172 9.11010742 C41.34458984 9.12750977 41.34458984 9.12750977 40.42138672 9.14526367 Z " fill="#F0F0F0" transform="translate(462.57861328125,101.854736328125)"/>
<path d="M0 0 C3.5 0.125 3.5 0.125 4.5 1.125 C4.5927833 2.50660115 4.61747043 3.89288038 4.61352539 5.27758789 C4.61341209 6.59884422 4.61341209 6.59884422 4.61329651 7.9467926 C4.60813522 8.90407761 4.60297394 9.86136261 4.59765625 10.84765625 C4.5962413 11.82286728 4.59482635 12.79807831 4.59336853 13.80284119 C4.58775133 16.93109143 4.57519593 20.05927123 4.5625 23.1875 C4.55748722 25.30273334 4.55292393 27.41796781 4.54882812 29.53320312 C4.53777631 34.73049296 4.52102146 39.92774145 4.5 45.125 C-1.125 46.25 -1.125 46.25 -4.5 45.125 C-4.63277344 44.29355469 -4.76554687 43.46210938 -4.90234375 42.60546875 C-5.07894531 41.51878906 -5.25554687 40.43210938 -5.4375 39.3125 C-5.69853516 37.69408203 -5.69853516 37.69408203 -5.96484375 36.04296875 C-6.43871921 33.07566644 -6.43871921 33.07566644 -7.5 30.125 C-8.16 30.125 -8.82 30.125 -9.5 30.125 C-9.5 29.135 -9.5 28.145 -9.5 27.125 C-10.16 27.125 -10.82 27.125 -11.5 27.125 C-14.5 23.66346154 -14.5 23.66346154 -14.5 21.125 C-15.16 21.125 -15.82 21.125 -16.5 21.125 C-16.5 20.465 -16.5 19.805 -16.5 19.125 C-17.82 18.795 -19.14 18.465 -20.5 18.125 C-20.5 17.465 -20.5 16.805 -20.5 16.125 C-36.21489432 10.55234244 -47.02869967 10.63703534 -62.5 17.125 C-62.5 17.785 -62.5 18.445 -62.5 19.125 C-63.16 19.125 -63.82 19.125 -64.5 19.125 C-64.5 19.785 -64.5 20.445 -64.5 21.125 C-65.16 21.125 -65.82 21.125 -66.5 21.125 C-66.5 21.785 -66.5 22.445 -66.5 23.125 C-67.16 23.125 -67.82 23.125 -68.5 23.125 C-68.83 24.445 -69.16 25.765 -69.5 27.125 C-70.16 27.125 -70.82 27.125 -71.5 27.125 C-72.16 29.435 -72.82 31.745 -73.5 34.125 C-74.16 34.125 -74.82 34.125 -75.5 34.125 C-75.5 35.445 -75.5 36.765 -75.5 38.125 C-76.16 38.125 -76.82 38.125 -77.5 38.125 C-77.56058594 39.04023438 -77.62117188 39.95546875 -77.68359375 40.8984375 C-77.76738281 42.08695313 -77.85117188 43.27546875 -77.9375 44.5 C-78.01871094 45.68335938 -78.09992188 46.86671875 -78.18359375 48.0859375 C-78.5 51.125 -78.5 51.125 -79.5 53.125 C-79.59678195 54.98759608 -79.63075842 56.85364231 -79.6328125 58.71875 C-79.63410156 59.83121094 -79.63539062 60.94367188 -79.63671875 62.08984375 C-79.63091797 63.83974609 -79.63091797 63.83974609 -79.625 65.625 C-79.62886719 66.79160156 -79.63273437 67.95820313 -79.63671875 69.16015625 C-79.63478516 70.82884766 -79.63478516 70.82884766 -79.6328125 72.53125 C-79.63112061 74.06749023 -79.63112061 74.06749023 -79.62939453 75.63476562 C-79.66652296 78.12545289 -79.66652296 78.12545289 -78.5 80.125 C-78.26827173 82.67115009 -78.08105471 85.19896225 -77.9375 87.75 C-77.89431641 88.45640625 -77.85113281 89.1628125 -77.80664062 89.890625 C-77.70055249 91.63518537 -77.59977111 93.38006697 -77.5 95.125 C-76.84 95.125 -76.18 95.125 -75.5 95.125 C-74.00178941 98.49597383 -73.5 100.32942119 -73.5 104.125 C-72.84 104.125 -72.18 104.125 -71.5 104.125 C-70.55598958 105.8828125 -69.61197917 107.640625 -68.66796875 109.3984375 C-67.45236507 111.43002365 -67.45236507 111.43002365 -64.5 113.125 C-64.5 113.785 -64.5 114.445 -64.5 115.125 C-63.819375 115.393125 -63.13875 115.66125 -62.4375 115.9375 C-60.27415695 116.81204293 -58.13073998 117.73627679 -56 118.6875 C-45.71573178 122.91139587 -34.82784678 121.67563764 -24.5 118.125 C-19.20605062 115.72229983 -12.18900234 112.50300468 -9.5 107.125 C-8.84 107.125 -8.18 107.125 -7.5 107.125 C-7.5 106.465 -7.5 105.805 -7.5 105.125 C-6.84 105.125 -6.18 105.125 -5.5 105.125 C-5.5 103.805 -5.5 102.485 -5.5 101.125 C-2.6875 100 -2.6875 100 0.5 99.125 C1.985 100.115 1.985 100.115 3.5 101.125 C4.00427005 105.56257643 3.07554134 108.98920399 1.5 113.125 C0.84 113.125 0.18 113.125 -0.5 113.125 C-0.5 113.785 -0.5 114.445 -0.5 115.125 C-1.82 115.455 -3.14 115.785 -4.5 116.125 C-4.5 116.785 -4.5 117.445 -4.5 118.125 C-7.32903963 120.37026955 -10.44124359 122.2089674 -13.5 124.125 C-14.08394531 124.51300781 -14.66789062 124.90101563 -15.26953125 125.30078125 C-29.36919501 134.18597082 -51.2628354 134.37249772 -67.11767578 131.0480957 C-78.01484641 128.32722295 -90.45698751 123.19299079 -98.5 115.125 C-98.5 114.465 -98.5 113.805 -98.5 113.125 C-99.16 113.125 -99.82 113.125 -100.5 113.125 C-100.5 112.465 -100.5 111.805 -100.5 111.125 C-101.16 111.125 -101.82 111.125 -102.5 111.125 C-102.5 110.465 -102.5 109.805 -102.5 109.125 C-103.16 109.125 -103.82 109.125 -104.5 109.125 C-107.21682385 105.38936721 -108.36726461 101.56880808 -109.5 97.125 C-110.16 97.125 -110.82 97.125 -111.5 97.125 C-112.81626692 93.50526598 -113.5 91.02932869 -113.5 87.125 C-114.16 87.125 -114.82 87.125 -115.5 87.125 C-118.23200453 56.87780703 -118.23200453 56.87780703 -113.5 46.125 C-112.84 46.125 -112.18 46.125 -111.5 46.125 C-111.5 44.145 -111.5 42.165 -111.5 40.125 C-110.84 40.125 -110.18 40.125 -109.5 40.125 C-109.231875 39.073125 -108.96375 38.02125 -108.6875 36.9375 C-107.62747781 33.53427088 -106.58611696 30.99341082 -104.5 28.125 C-103.84 28.125 -103.18 28.125 -102.5 28.125 C-102.5 27.465 -102.5 26.805 -102.5 26.125 C-101.84 26.125 -101.18 26.125 -100.5 26.125 C-99.84 24.805 -99.18 23.485 -98.5 22.125 C-97.84 22.125 -97.18 22.125 -96.5 22.125 C-96.30019531 21.56683594 -96.10039063 21.00867188 -95.89453125 20.43359375 C-93.94664425 17.20894048 -91.21427454 15.32289959 -88.1875 13.1875 C-87.56665527 12.74728516 -86.94581055 12.30707031 -86.30615234 11.85351562 C-80.43284583 7.83579898 -74.32049687 5.16604644 -67.5 3.125 C-66.29214844 2.76148437 -65.08429688 2.39796875 -63.83984375 2.0234375 C-58.5788259 0.75069126 -53.3270389 0.7414736 -47.9375 0.75 C-46.87772949 0.75161133 -45.81795898 0.75322266 -44.72607422 0.75488281 C-33.19255142 0.93402387 -23.15851411 3.59655497 -12.6484375 8.390625 C-10.16319341 9.24012662 -8.10856326 9.25313995 -5.5 9.125 C-5.355625 7.825625 -5.21125 6.52625 -5.0625 5.1875 C-4.50398406 0.16085657 -4.50398406 0.16085657 0 0 Z " fill="#ED0000" transform="translate(199.5,98.875)"/>
<path d="M0 0 C0.77915771 0.00202423 1.55831543 0.00404846 2.36108398 0.00613403 C3.15635498 0.00517731 3.95162598 0.00422058 4.77099609 0.00323486 C6.45564859 0.0025531 8.1403037 0.00440711 9.82495117 0.00857544 C12.41257595 0.01392378 15.00002714 0.00863034 17.58764648 0.00222778 C19.22045937 0.00288857 20.85327215 0.00416973 22.48608398 0.00613403 C23.2652417 0.0041098 24.04439941 0.00208557 24.84716797 0 C30.30863294 0.02399549 30.30863294 0.02399549 31.42358398 1.13894653 C31.54774619 3.40814879 31.60162147 5.68121104 31.62890625 7.9536438 C31.63880585 8.66580048 31.64870544 9.37795715 31.65890503 10.11169434 C31.6906061 12.47621282 31.71531123 14.84075142 31.73999023 17.20535278 C31.76055235 18.84060705 31.78154861 20.47585592 31.80296326 22.11109924 C31.8582607 26.42323439 31.90763599 30.73541811 31.95581055 35.04763794 C32.00596971 39.44465477 32.06168486 43.84160073 32.11694336 48.23855591 C32.22461871 56.8719596 32.32604269 65.50542243 32.42358398 74.13894653 C33.69331055 74.32070435 34.96303711 74.50246216 36.27124023 74.68972778 C36.98546143 74.79196655 37.69968262 74.89420532 38.43554688 74.99954224 C40.97978878 75.17794849 42.39885328 74.67774187 44.42358398 73.13894653 C44.75358398 72.47894653 45.08358398 71.81894653 45.42358398 71.13894653 C46.08358398 71.13894653 46.74358398 71.13894653 47.42358398 71.13894653 C48.08358398 69.48894653 48.74358398 67.83894653 49.42358398 66.13894653 C50.08358398 66.13894653 50.74358398 66.13894653 51.42358398 66.13894653 C51.42358398 47.32894653 51.42358398 28.51894653 51.42358398 9.13894653 C50.76358398 9.13894653 50.10358398 9.13894653 49.42358398 9.13894653 C49.01108398 8.70582153 48.59858398 8.27269653 48.17358398 7.82644653 C45.87062083 5.60573206 43.30515982 4.48368192 40.42358398 3.13894653 C41.08358398 2.14894653 41.74358398 1.15894653 42.42358398 0.13894653 C45.16676139 -0.14042282 47.68120581 -0.23310295 50.42358398 -0.18917847 C51.21506836 -0.1873053 52.00655273 -0.18543213 52.82202148 -0.1835022 C54.49654345 -0.17677539 56.17104954 -0.16284837 57.84545898 -0.14230347 C60.41331529 -0.11117794 62.98055784 -0.1013365 65.54858398 -0.09542847 C67.17359149 -0.08625736 68.79859274 -0.07588125 70.42358398 -0.06417847 C71.19444336 -0.05992859 71.96530273 -0.05567871 72.75952148 -0.05130005 C78.18918453 0.02174681 78.18918453 0.02174681 80.42358398 1.13894653 C80.75358398 26.87894653 81.08358398 52.61894653 81.42358398 79.13894653 C84.06358398 80.45894653 86.70358398 81.77894653 89.42358398 83.13894653 C89.42358398 84.45894653 89.42358398 85.77894653 89.42358398 87.13894653 C85.60851424 88.3677248 81.81244895 88.28325129 77.84936523 88.27175903 C76.76270821 88.27319412 76.76270821 88.27319412 75.65409851 88.2746582 C74.12861036 88.27533686 72.60311928 88.27350453 71.07763672 88.26931763 C68.73390298 88.26394153 66.39035884 88.26928512 64.04663086 88.27566528 C62.56420856 88.2750049 61.08178638 88.27372457 59.59936523 88.27175903 C58.89524002 88.27378326 58.19111481 88.2758075 57.46565247 88.27789307 C52.53855175 88.2539143 52.53855175 88.2539143 51.42358398 87.13894653 C51.28243237 84.46835802 51.38111291 81.81462416 51.42358398 79.13894653 C49.47359269 79.33365764 49.47359269 79.33365764 47.42358398 80.13894653 C46.99819336 81.06900513 46.99819336 81.06900513 46.56420898 82.01785278 C45.12588711 84.69254037 43.71408646 85.42285137 41.04858398 86.82644653 C40.27772461 87.24281372 39.50686523 87.65918091 38.71264648 88.08816528 C32.27999652 91.04103703 24.36437617 91.40464276 17.63842773 89.24441528 C15.50866098 88.28922671 13.45461139 87.28781052 11.42358398 86.13894653 C11.42358398 85.47894653 11.42358398 84.81894653 11.42358398 84.13894653 C10.76358398 84.13894653 10.10358398 84.13894653 9.42358398 84.13894653 C9.42358398 83.47894653 9.42358398 82.81894653 9.42358398 82.13894653 C8.76358398 82.13894653 8.10358398 82.13894653 7.42358398 82.13894653 C7.42358398 81.14894653 7.42358398 80.15894653 7.42358398 79.13894653 C6.76358398 79.13894653 6.10358398 79.13894653 5.42358398 79.13894653 C1.60467553 69.71897235 2.28093846 59.02526708 2.32592773 49.03347778 C2.32734268 47.82825974 2.32875763 46.62304169 2.33021545 45.38130188 C2.33576627 41.57132373 2.3483094 37.76140661 2.36108398 33.95144653 C2.36610535 31.35183801 2.37066714 28.75222856 2.37475586 26.15261841 C2.38571954 19.81470732 2.40240792 13.47683129 2.42358398 7.13894653 C1.29823242 6.85277466 0.17288086 6.56660278 -0.98657227 6.27175903 C-4.57641602 5.13894653 -4.57641602 5.13894653 -6.01391602 3.01394653 C-6.19954102 2.39519653 -6.38516602 1.77644653 -6.57641602 1.13894653 C-4.78811153 -0.64935795 -2.3806045 0.01045942 0 0 Z " fill="#E6E6E6" transform="translate(577.576416015625,140.86105346679688)"/>
<path d="M0 0 C1.65902344 0.25716797 1.65902344 0.25716797 3.3515625 0.51953125 C6.02809533 1.11085827 8.01841541 1.82527915 10.375 3.1875 C10.375 3.8475 10.375 4.5075 10.375 5.1875 C11.035 5.1875 11.695 5.1875 12.375 5.1875 C12.375 5.8475 12.375 6.5075 12.375 7.1875 C13.035 7.1875 13.695 7.1875 14.375 7.1875 C14.375 7.8475 14.375 8.5075 14.375 9.1875 C15.035 9.1875 15.695 9.1875 16.375 9.1875 C18.86549936 14.83263188 19.50168964 20.15012612 19.48852539 26.28466797 C19.48841209 28.05582474 19.48841209 28.05582474 19.48829651 29.86276245 C19.48313522 31.12234772 19.47797394 32.38193298 19.47265625 33.6796875 C19.4712413 34.98076447 19.46982635 36.28184143 19.46836853 37.62234497 C19.46456844 41.06479853 19.45475983 44.50720925 19.44366455 47.949646 C19.43339625 51.46902894 19.42885934 54.98841887 19.42382812 58.5078125 C19.41313509 65.40105916 19.39608911 72.29427752 19.375 79.1875 C20.035 79.1875 20.695 79.1875 21.375 79.1875 C21.375 80.1775 21.375 81.1675 21.375 82.1875 C22.48875 82.47625 23.6025 82.765 24.75 83.0625 C28.375 84.1875 28.375 84.1875 30.375 86.1875 C30.375 87.1775 30.375 88.1675 30.375 89.1875 C27.59438025 90.11437325 25.95448141 90.30943396 23.0871582 90.30102539 C22.22649246 90.30094986 21.36582672 90.30087433 20.4790802 90.30079651 C19.55399155 90.29563522 18.62890289 90.29047394 17.67578125 90.28515625 C16.72559616 90.2837413 15.77541107 90.28232635 14.7964325 90.28086853 C11.76008971 90.27526875 8.72382052 90.26271632 5.6875 90.25 C3.62955836 90.24498497 1.57161556 90.24042207 -0.48632812 90.23632812 C-5.53258046 90.2252994 -10.57877775 90.20803493 -15.625 90.1875 C-15.955 88.5375 -16.285 86.8875 -16.625 85.1875 C-15.820625 84.73375 -15.01625 84.28 -14.1875 83.8125 C-11.53643428 82.44024335 -11.53643428 82.44024335 -10.625 80.1875 C-9.965 80.1875 -9.305 80.1875 -8.625 80.1875 C-8.955 79.1975 -9.285 78.2075 -9.625 77.1875 C-9.68576934 75.23897104 -9.68350454 73.28824076 -9.64672852 71.33911133 C-9.62663223 70.1380928 -9.60653595 68.93707428 -9.58583069 67.69966125 C-9.54527809 65.7542469 -9.54527809 65.7542469 -9.50390625 63.76953125 C-9.47959886 62.42861235 -9.45575561 61.08768496 -9.43235779 59.74674988 C-9.36957831 56.22032999 -9.30049444 52.69406069 -9.23010254 49.16778564 C-9.15936357 45.56830696 -9.09457992 41.96872166 -9.02929688 38.36914062 C-8.90036372 31.30847794 -8.76477087 24.24795713 -8.625 17.1875 C-9.285 17.1875 -9.945 17.1875 -10.625 17.1875 C-10.625 16.1975 -10.625 15.2075 -10.625 14.1875 C-13.925 14.1875 -17.225 14.1875 -20.625 14.1875 C-20.625 14.8475 -20.625 15.5075 -20.625 16.1875 C-22 17.8125 -22 17.8125 -23.625 19.1875 C-24.285 19.1875 -24.945 19.1875 -25.625 19.1875 C-25.625 19.8475 -25.625 20.5075 -25.625 21.1875 C-26.285 21.1875 -26.945 21.1875 -27.625 21.1875 C-28.50050021 24.22552167 -28.7733632 26.9824886 -28.83032227 30.13964844 C-28.85026749 31.12036316 -28.87021271 32.10107788 -28.89076233 33.11151123 C-28.91583107 34.6882663 -28.91583107 34.6882663 -28.94140625 36.296875 C-28.96218735 37.37882141 -28.98296844 38.46076782 -29.00437927 39.57550049 C-29.06972931 43.02943613 -29.12869229 46.48344737 -29.1875 49.9375 C-29.23069904 52.27995571 -29.27431378 54.6224038 -29.31835938 56.96484375 C-29.42539583 62.7056494 -29.52718926 68.44653015 -29.625 74.1875 C-28.965 74.1875 -28.305 74.1875 -27.625 74.1875 C-27.625 76.4975 -27.625 78.8075 -27.625 81.1875 C-26.965 81.1875 -26.305 81.1875 -25.625 81.1875 C-25.625 81.8475 -25.625 82.5075 -25.625 83.1875 C-23.975 83.5175 -22.325 83.8475 -20.625 84.1875 C-20.625 85.8375 -20.625 87.4875 -20.625 89.1875 C-22.9550998 90.3525499 -24.29747077 90.3084358 -26.89111328 90.30102539 C-28.21225632 90.30091209 -28.21225632 90.30091209 -29.56008911 90.30079651 C-30.51221283 90.29563522 -31.46433655 90.29047394 -32.4453125 90.28515625 C-33.41910858 90.2837413 -34.39290466 90.28232635 -35.39620972 90.28086853 C-38.51417073 90.27525973 -41.6320606 90.26270573 -44.75 90.25 C-46.86067605 90.24498613 -48.97135322 90.24042303 -51.08203125 90.23632812 C-56.26304521 90.22528745 -61.44401752 90.20854073 -66.625 90.1875 C-66.955 89.5275 -67.285 88.8675 -67.625 88.1875 C-65.95022538 85.54311902 -65.05401336 84.34445611 -62.0625 83.25 C-59.45681 82.41702762 -59.45681 82.41702762 -58.48883057 80.01979065 C-57.51014793 76.81092794 -57.37100279 74.16251041 -57.36621094 70.80834961 C-57.35675446 68.90629005 -57.35675446 68.90629005 -57.34710693 66.96580505 C-57.35068657 65.5904832 -57.35478849 64.21516262 -57.359375 62.83984375 C-57.35802677 61.42167596 -57.35608493 60.00350862 -57.35357666 58.58534241 C-57.35063376 55.6189431 -57.35489674 52.65266453 -57.36425781 49.6862793 C-57.37566238 45.88764068 -57.3690814 42.0892844 -57.35711288 38.29065609 C-57.34988058 35.36440408 -57.35218831 32.43821884 -57.35736847 29.5119648 C-57.35870064 28.11135385 -57.35707242 26.7107368 -57.35240936 25.31013298 C-57.34732076 23.35250848 -57.35645404 21.39486266 -57.36621094 19.43725586 C-57.36780212 18.3242662 -57.36939331 17.21127655 -57.37103271 16.06455994 C-57.6230471 13.20962336 -58.08140367 11.57484471 -59.625 9.1875 C-61.32227225 7.87539995 -61.32227225 7.87539995 -63.25 6.9375 C-64.36375 6.36 -65.4775 5.7825 -66.625 5.1875 C-66.295 4.1975 -65.965 3.2075 -65.625 2.1875 C-60.53467159 2.16281916 -55.44437785 2.14464918 -50.35400391 2.13256836 C-48.62157586 2.12753318 -46.88915208 2.12070468 -45.15673828 2.11206055 C-42.66958567 2.09995935 -40.18248913 2.09426362 -37.6953125 2.08984375 C-36.91817902 2.08468246 -36.14104553 2.07952118 -35.34036255 2.07420349 C-29.85274341 2.07362829 -29.85274341 2.07362829 -27.625 3.1875 C-27.625 3.8475 -27.625 4.5075 -27.625 5.1875 C-28.285 5.1875 -28.945 5.1875 -29.625 5.1875 C-29.625 7.1675 -29.625 9.1475 -29.625 11.1875 C-28.965 11.1875 -28.305 11.1875 -27.625 11.1875 C-27.625 10.5275 -27.625 9.8675 -27.625 9.1875 C-22.21323529 5.1875 -22.21323529 5.1875 -19.625 5.1875 C-19.625 4.5275 -19.625 3.8675 -19.625 3.1875 C-12.81254162 0.05376915 -7.56805084 -1.23180219 0 0 Z " fill="#EFEFEF" transform="translate(335.625,138.8125)"/>
<path d="M0 0 C0.81700882 0.00141495 1.63401764 0.0028299 2.4757843 0.00428772 C5.08415393 0.00988331 7.69243759 0.02243496 10.30078125 0.03515625 C12.06966022 0.04017182 13.83854053 0.04473463 15.60742188 0.04882812 C19.94274144 0.05985129 24.27799677 0.07711287 28.61328125 0.09765625 C28.61328125 0.75765625 28.61328125 1.41765625 28.61328125 2.09765625 C29.27328125 2.09765625 29.93328125 2.09765625 30.61328125 2.09765625 C30.61328125 3.74765625 30.61328125 5.39765625 30.61328125 7.09765625 C29.95328125 7.09765625 29.29328125 7.09765625 28.61328125 7.09765625 C28.61328125 43.39765625 28.61328125 79.69765625 28.61328125 117.09765625 C29.27328125 117.09765625 29.93328125 117.09765625 30.61328125 117.09765625 C31.06703125 117.57203125 31.52078125 118.04640625 31.98828125 118.53515625 C33.84305612 120.31859362 35.11463717 120.66685555 37.61328125 121.09765625 C37.61328125 121.75765625 37.61328125 122.41765625 37.61328125 123.09765625 C38.27328125 123.09765625 38.93328125 123.09765625 39.61328125 123.09765625 C39.61328125 124.08765625 39.61328125 125.07765625 39.61328125 126.09765625 C37.21745779 127.29556798 35.74550587 127.21833065 33.07177734 127.21118164 C32.13095306 127.21110611 31.19012878 127.21103058 30.22079468 127.21095276 C29.20304962 127.20579147 28.18530457 127.20063019 27.13671875 127.1953125 C26.09633453 127.19389755 25.05595032 127.1924826 23.98403931 127.19102478 C20.65209104 127.18541491 17.3202093 127.17286072 13.98828125 127.16015625 C11.73307389 127.15514252 9.47786547 127.15057939 7.22265625 127.14648438 C1.68617511 127.13544228 -3.85026707 127.11869452 -9.38671875 127.09765625 C-9.71671875 125.77765625 -10.04671875 124.45765625 -10.38671875 123.09765625 C-3.63671875 119.09765625 -3.63671875 119.09765625 -1.38671875 119.09765625 C-1.38671875 82.46765625 -1.38671875 45.83765625 -1.38671875 8.09765625 C-3.69671875 7.43765625 -6.00671875 6.77765625 -8.38671875 6.09765625 C-9.37671875 5.43765625 -10.36671875 4.77765625 -11.38671875 4.09765625 C-11.38671875 3.10765625 -11.38671875 2.11765625 -11.38671875 1.09765625 C-7.56516495 -0.17619502 -3.97987405 -0.02587563 0 0 Z " fill="#ECECEC" transform="translate(683.38671875,101.90234375)"/>
<path d="M0 0 C0.5671875 0.50273437 1.134375 1.00546875 1.71875 1.5234375 C1.71875 2.5134375 1.71875 3.5034375 1.71875 4.5234375 C3.03875 5.1834375 4.35875 5.8434375 5.71875 6.5234375 C5.71875 7.5134375 5.71875 8.5034375 5.71875 9.5234375 C6.37875 9.5234375 7.03875 9.5234375 7.71875 9.5234375 C7.71875 10.5134375 7.71875 11.5034375 7.71875 12.5234375 C8.37875 12.5234375 9.03875 12.5234375 9.71875 12.5234375 C10.99736615 15.08066979 10.83211609 16.89080852 10.81640625 19.75 C10.81157227 21.296875 10.81157227 21.296875 10.80664062 22.875 C10.79407227 24.49535156 10.79407227 24.49535156 10.78125 26.1484375 C10.77673828 27.23640625 10.77222656 28.324375 10.76757812 29.4453125 C10.75576776 32.13807539 10.73929778 34.83072938 10.71875 37.5234375 C0.39022586 37.59016282 -9.89601083 37.40066352 -20.21875 37.0234375 C-21.59569473 36.97502104 -22.97264787 36.9268431 -24.34960938 36.87890625 C-27.66024603 36.76274356 -30.9707795 36.64422711 -34.28125 36.5234375 C-33.83283513 38.58334922 -33.37694103 40.6416336 -32.91796875 42.69921875 C-32.53838013 44.41878784 -32.53838013 44.41878784 -32.15112305 46.1730957 C-31.16751965 49.96147333 -29.78286712 53.31979844 -28.05078125 56.81640625 C-27.28125 58.5234375 -27.28125 58.5234375 -27.28125 60.5234375 C-26.62125 60.5234375 -25.96125 60.5234375 -25.28125 60.5234375 C-25.28125 61.5134375 -25.28125 62.5034375 -25.28125 63.5234375 C-24.4459375 63.925625 -24.4459375 63.925625 -23.59375 64.3359375 C-21.28125 65.5234375 -21.28125 65.5234375 -19.09375 67.1484375 C-15.09809418 69.10186923 -11.65100324 69.21064656 -7.28125 68.5234375 C-3.285242 66.98244387 -0.69200195 65.13956543 1.71875 61.5234375 C2.37875 61.5234375 3.03875 61.5234375 3.71875 61.5234375 C3.71875 60.5334375 3.71875 59.5434375 3.71875 58.5234375 C6.25059488 56.16620261 7.19065093 55.5234375 10.71875 55.5234375 C10.71875 59.4834375 10.71875 63.4434375 10.71875 67.5234375 C9.23375 68.0184375 9.23375 68.0184375 7.71875 68.5234375 C7.71875 69.1834375 7.71875 69.8434375 7.71875 70.5234375 C7.05875 70.5234375 6.39875 70.5234375 5.71875 70.5234375 C4.72875 72.5034375 4.72875 72.5034375 3.71875 74.5234375 C3.05875 74.5234375 2.39875 74.5234375 1.71875 74.5234375 C1.71875 75.1834375 1.71875 75.8434375 1.71875 76.5234375 C1.05875 76.5234375 0.39875 76.5234375 -0.28125 76.5234375 C-0.77625 78.0084375 -0.77625 78.0084375 -1.28125 79.5234375 C-3.64453125 80.875 -3.64453125 80.875 -6.59375 82.1484375 C-7.55925781 82.57382813 -8.52476562 82.99921875 -9.51953125 83.4375 C-17.99578368 86.77045357 -29.18085621 87.12693424 -37.78125 83.8984375 C-42.30516598 81.75149432 -46.68785916 79.03652911 -50.28125 75.5234375 C-50.28125 74.8634375 -50.28125 74.2034375 -50.28125 73.5234375 C-50.94125 73.5234375 -51.60125 73.5234375 -52.28125 73.5234375 C-52.28125 72.8634375 -52.28125 72.2034375 -52.28125 71.5234375 C-52.94125 71.5234375 -53.60125 71.5234375 -54.28125 71.5234375 C-54.28125 70.5334375 -54.28125 69.5434375 -54.28125 68.5234375 C-54.94125 68.5234375 -55.60125 68.5234375 -56.28125 68.5234375 C-56.28125 67.2034375 -56.28125 65.8834375 -56.28125 64.5234375 C-56.94125 64.5234375 -57.60125 64.5234375 -58.28125 64.5234375 C-59.12806133 59.44256954 -59.37163099 54.67515373 -59.28125 49.5234375 C-59.94125 49.5234375 -60.60125 49.5234375 -61.28125 49.5234375 C-61.28125 43.2534375 -61.28125 36.9834375 -61.28125 30.5234375 C-60.62125 30.5234375 -59.96125 30.5234375 -59.28125 30.5234375 C-59.343125 29.4096875 -59.405 28.2959375 -59.46875 27.1484375 C-59.49663129 21.96251781 -57.9551795 17.38580416 -56.28125 12.5234375 C-55.62125 12.5234375 -54.96125 12.5234375 -54.28125 12.5234375 C-54.28125 11.5334375 -54.28125 10.5434375 -54.28125 9.5234375 C-53.62125 9.5234375 -52.96125 9.5234375 -52.28125 9.5234375 C-52.28125 8.8634375 -52.28125 8.2034375 -52.28125 7.5234375 C-51.62125 7.5234375 -50.96125 7.5234375 -50.28125 7.5234375 C-50.013125 6.8840625 -49.745 6.2446875 -49.46875 5.5859375 C-48.28125 3.5234375 -48.28125 3.5234375 -45.28125 2.5234375 C-45.28125 1.8634375 -45.28125 1.2034375 -45.28125 0.5234375 C-43.30125 -0.1365625 -41.32125 -0.7965625 -39.28125 -1.4765625 C-39.28125 -2.1365625 -39.28125 -2.7965625 -39.28125 -3.4765625 C-24.66259007 -8.64182234 -13.27954671 -8.59532304 0 0 Z M-27.28125 1.5234375 C-27.28125 2.1834375 -27.28125 2.8434375 -27.28125 3.5234375 C-27.94125 3.5234375 -28.60125 3.5234375 -29.28125 3.5234375 C-34.1561633 12.6085032 -34.49240833 19.28225868 -34.28125 29.5234375 C-27.02125 29.5234375 -19.76125 29.5234375 -12.28125 29.5234375 C-12.28125 24.5734375 -12.28125 19.6234375 -12.28125 14.5234375 C-12.94125 14.5234375 -13.60125 14.5234375 -14.28125 14.5234375 C-14.28125 11.8834375 -14.28125 9.2434375 -14.28125 6.5234375 C-14.94125 6.5234375 -15.60125 6.5234375 -16.28125 6.5234375 C-16.28125 5.5334375 -16.28125 4.5434375 -16.28125 3.5234375 C-16.94125 3.5234375 -17.60125 3.5234375 -18.28125 3.5234375 C-18.61125 2.5334375 -18.94125 1.5434375 -19.28125 0.5234375 C-23.42218698 0.31373191 -23.42218698 0.31373191 -27.28125 1.5234375 Z " fill="#EAEAEA" transform="translate(863.28125,145.4765625)"/>
<path d="M0 0 C0 0.66 0 1.32 0 2 C0.99 2.33 1.98 2.66 3 3 C3 3.66 3 4.32 3 5 C3.66 5 4.32 5 5 5 C9 9.35294118 9 9.35294118 9 13 C9.66 13 10.32 13 11 13 C11.13277344 13.60328125 11.26554687 14.2065625 11.40234375 14.828125 C11.57894531 15.62734375 11.75554687 16.4265625 11.9375 17.25 C12.19853516 18.43335938 12.19853516 18.43335938 12.46484375 19.640625 C12.9472157 21.76728673 13.47110699 23.88442798 14 26 C14 29.96 14 33.92 14 38 C-0.85 38.33 -15.7 38.66 -31 39 C-30.60243236 49.1846148 -30.60243236 49.1846148 -28 55 C-28 56.32 -28 57.64 -28 59 C-27.34 59 -26.68 59 -26 59 C-26 59.99 -26 60.98 -26 62 C-25.34 62 -24.68 62 -24 62 C-24 62.66 -24 63.32 -24 64 C-23.34 64 -22.68 64 -22 64 C-22 64.66 -22 65.32 -22 66 C-21.4225 66.28875 -20.845 66.5775 -20.25 66.875 C-18.87088585 67.56455707 -17.5054796 68.2836375 -16.16796875 69.05078125 C-12.26421565 70.75999207 -8.17721794 70.45286991 -4 70 C-0.21634468 68.30596911 -0.21634468 68.30596911 2 65 C2.66 65 3.32 65 4 65 C4.495 63.02 4.495 63.02 5 61 C5.66 61 6.32 61 7 61 C7 60.34 7 59.68 7 59 C10.465 58.505 10.465 58.505 14 58 C14.34833144 62.87664009 13.41685712 65.77050005 11 70 C10.34 70 9.68 70 9 70 C9 70.99 9 71.98 9 73 C8.34 73 7.68 73 7 73 C7 73.66 7 74.32 7 75 C6.34 75 5.68 75 5 75 C5 75.66 5 76.32 5 77 C-5.3674869 85.43974557 -15.80164444 88.02171787 -29 87 C-35.24403933 85.50669196 -41.0117642 83.06935025 -46 79 C-46.33 78.01 -46.66 77.02 -47 76 C-47.66 76 -48.32 76 -49 76 C-49 75.34 -49 74.68 -49 74 C-49.66 74 -50.32 74 -51 74 C-51 73.01 -51 72.02 -51 71 C-51.66 71 -52.32 71 -53 71 C-53.45375 69.80375 -53.9075 68.6075 -54.375 67.375 C-54.63023437 66.70210938 -54.88546875 66.02921875 -55.1484375 65.3359375 C-55.42945313 64.56507813 -55.71046875 63.79421875 -56 63 C-56.34208496 62.10418213 -56.68416992 61.20836426 -57.03662109 60.28540039 C-58.07894628 56.73077036 -58.25855901 53.79644945 -58.265625 50.09765625 C-58.26820313 48.79505859 -58.27078125 47.49246094 -58.2734375 46.15039062 C-58.26924805 45.47854736 -58.26505859 44.8067041 -58.26074219 44.11450195 C-58.25004698 42.07147404 -58.26065799 40.02932878 -58.2734375 37.98632812 C-58.27085937 36.68244141 -58.26828125 35.37855469 -58.265625 34.03515625 C-58.26336914 32.8531665 -58.26111328 31.67117676 -58.25878906 30.45336914 C-57.98025454 26.7365099 -57.12799113 23.54423002 -56 20 C-55.65864073 18.66869885 -55.32074044 17.33641852 -55 16 C-54.34 16 -53.68 16 -53 16 C-53 15.01 -53 14.02 -53 13 C-52.34 13 -51.68 13 -51 13 C-51 12.01 -51 11.02 -51 10 C-50.34 10 -49.68 10 -49 10 C-49 9.34 -49 8.68 -49 8 C-48.34 8 -47.68 8 -47 8 C-46.75636719 7.40316406 -46.51273437 6.80632812 -46.26171875 6.19140625 C-42.94659251 0.43355541 -35.06179448 -2.82690387 -29 -5 C-18.49192129 -7.40810137 -9.30673833 -5.1431975 0 0 Z M-24.3125 2.3125 C-24.869375 2.869375 -25.42625 3.42625 -26 4 C-26 4.66 -26 5.32 -26 6 C-26.66 6 -27.32 6 -28 6 C-30.46413911 11.14255118 -31.41430475 15.33827928 -32 21 C-32.33 21.33 -32.66 21.66 -33 22 C-33 24.97 -33 27.94 -33 31 C-25.74 31 -18.48 31 -11 31 C-11 24.07 -11 17.14 -11 10 C-11.66 10 -12.32 10 -13 10 C-13.103125 9.4225 -13.20625 8.845 -13.3125 8.25 C-14.13390975 5.56174991 -15.04459125 4.02524478 -17 2 C-20.16632987 0.78218082 -21.33306775 0.62147089 -24.3125 2.3125 Z " fill="#E0E0E0" transform="translate(434,144)"/>
<path d="M0 0 C0.2784375 -0.9590625 0.2784375 -0.9590625 0.5625 -1.9375 C2 -4 2 -4 5.625 -4.75 C7.295625 -4.87375 7.295625 -4.87375 9 -5 C9.66 -4.01 10.32 -3.02 11 -2 C10.34 -2 9.68 -2 9 -2 C9 4.93 9 11.86 9 19 C9.66 19 10.32 19 11 19 C11 21.31 11 23.62 11 26 C5.375 27.125 5.375 27.125 2 26 C2 24.02 2 22.04 2 20 C1.34 20 0.68 20 0 20 C-0.99 17.03 -1.98 14.06 -3 11 C-3.66 11 -4.32 11 -5 11 C-5 10.34 -5 9.68 -5 9 C-6.32 8.67 -7.64 8.34 -9 8 C-9 7.34 -9 6.68 -9 6 C-15.44876094 4.56033209 -15.44876094 4.56033209 -22 4 C-22 4.66 -22 5.32 -22 6 C-22.66 6 -23.32 6 -24 6 C-24 9.63 -24 13.26 -24 17 C-22.68 17.66 -21.36 18.32 -20 19 C-18.85513604 19.7570769 -17.72717894 20.54031622 -16.6171875 21.34765625 C-16.00746094 21.78787109 -15.39773438 22.22808594 -14.76953125 22.68164062 C-14.14433594 23.13732422 -13.51914062 23.59300781 -12.875 24.0625 C-8.59313976 27.2800216 -8.59313976 27.2800216 -4 30 C-4 30.66 -4 31.32 -4 32 C-2.02 32.66 -0.04 33.32 2 34 C2 34.66 2 35.32 2 36 C2.99 36.33 3.98 36.66 5 37 C10.44136558 42.00605633 14.63088304 47.97201114 15.3125 55.41015625 C15.41354975 61.41630073 15.14921541 66.34326503 13 72 C12.34 72 11.68 72 11 72 C11 73.32 11 74.64 11 76 C10.34 76 9.68 76 9 76 C9 76.66 9 77.32 9 78 C8.34 78 7.68 78 7 78 C6.77054688 78.60457031 6.54109375 79.20914063 6.3046875 79.83203125 C4.63303562 82.60977614 3.03778998 83.31753795 0.125 84.6875 C-1.17050781 85.31205078 -1.17050781 85.31205078 -2.4921875 85.94921875 C-12.86480379 90.29537729 -23.70116886 87.85079 -33.8203125 83.8984375 C-34.53960938 83.60195312 -35.25890625 83.30546875 -36 83 C-36 83.99 -36 84.98 -36 86 C-41.625 88.125 -41.625 88.125 -45 87 C-45 86.01 -45 85.02 -45 84 C-44.34 84 -43.68 84 -43 84 C-43 81.69 -43 79.38 -43 77 C-43.66 77 -44.32 77 -45 77 C-45 71.06 -45 65.12 -45 59 C-45.66 59 -46.32 59 -47 59 C-47 58.01 -47 57.02 -47 56 C-40.25 54.875 -40.25 54.875 -38 56 C-37.21875 57.85546875 -37.21875 57.85546875 -36.5 60.1875 C-36.24089844 60.99703125 -35.98179687 61.8065625 -35.71484375 62.640625 C-35.13223291 64.56355913 -34.59117032 66.49904217 -34.0625 68.4375 C-32.76196928 71.5740741 -31.99209107 71.63416091 -29 73 C-28.31421875 73.42539063 -27.6284375 73.85078125 -26.921875 74.2890625 C-21.62347314 77.54815141 -18.20758963 78.56432633 -12 78 C-11.67 77.34 -11.34 76.68 -11 76 C-10.34 76 -9.68 76 -9 76 C-9 74.68 -9 73.36 -9 72 C-8.34 72 -7.68 72 -7 72 C-7.66 71.01 -8.32 70.02 -9 69 C-9 67.68 -9 66.36 -9 65 C-9.66 65 -10.32 65 -11 65 C-11.0825 64.38125 -11.165 63.7625 -11.25 63.125 C-11.7745257 60.87604099 -11.7745257 60.87604099 -13.6875 60.1015625 C-14.450625 59.73804688 -15.21375 59.37453125 -16 59 C-31.45613016 49.19639744 -31.45613016 49.19639744 -36 45 C-36 44.34 -36 43.68 -36 43 C-36.66 43 -37.32 43 -38 43 C-38 42.34 -38 41.68 -38 41 C-38.639375 40.79375 -39.27875 40.5875 -39.9375 40.375 C-42 39 -42 39 -42.75 35.875 C-42.8325 34.92625 -42.915 33.9775 -43 33 C-43.66 33 -44.32 33 -45 33 C-45 31.35 -45 29.7 -45 28 C-45.66 28 -46.32 28 -47 28 C-47 23.71 -47 19.42 -47 15 C-46.34 15 -45.68 15 -45 15 C-45 13.35 -45 11.7 -45 10 C-44.34 10 -43.68 10 -43 10 C-42.938125 9.278125 -42.87625 8.55625 -42.8125 7.8125 C-41.55369626 3.45510245 -38.92325813 1.18323905 -35.1015625 -1.16796875 C-23.20749496 -7.47957164 -11.83756298 -5.12961063 0 0 Z " fill="#E0E0E0" transform="translate(776,143)"/>
<path d="M0 0 C1.22763565 0.00212242 1.22763565 0.00212242 2.48007202 0.00428772 C5.09873075 0.00989335 7.71730454 0.02244677 10.3359375 0.03515625 C12.10937377 0.04017053 13.88281137 0.04473356 15.65625 0.04882812 C20.00784532 0.05986461 24.359377 0.077133 28.7109375 0.09765625 C29.88647446 3.62426712 29.8864652 6.83513492 29.91625977 10.5065918 C29.92615936 11.25805481 29.93605896 12.00951782 29.94625854 12.78375244 C29.97784246 15.26726126 30.00261866 17.75078921 30.02734375 20.234375 C30.04791596 21.95645138 30.06891251 23.67852275 30.09031677 25.40058899 C30.14550984 29.93299291 30.19493132 34.46544219 30.24316406 38.9979248 C30.29339926 43.62300656 30.34907479 48.24802245 30.40429688 52.87304688 C30.51184463 61.94786039 30.61329714 71.02273111 30.7109375 80.09765625 C33.6809375 81.08765625 36.6509375 82.07765625 39.7109375 83.09765625 C39.7109375 84.41765625 39.7109375 85.73765625 39.7109375 87.09765625 C37.34845782 88.27889609 35.926976 88.22445308 33.29296875 88.22705078 C32.37862061 88.23020294 31.46427246 88.2333551 30.5222168 88.23660278 C29.03782104 88.23356644 29.03782104 88.23356644 27.5234375 88.23046875 C26.00327026 88.23190384 26.00327026 88.23190384 24.45239258 88.23336792 C22.30712828 88.23404921 20.16186192 88.23219851 18.01660156 88.22802734 C14.72456247 88.22267839 11.43265982 88.22797409 8.140625 88.234375 C6.05989553 88.23371421 3.97916615 88.23243303 1.8984375 88.23046875 C0.90884033 88.23249298 -0.08075684 88.23451721 -1.1003418 88.23660278 C-2.01468994 88.23345062 -2.92903809 88.23029846 -3.87109375 88.22705078 C-4.67780518 88.22625519 -5.4845166 88.22545959 -6.31567383 88.22463989 C-8.2890625 88.09765625 -8.2890625 88.09765625 -10.2890625 87.09765625 C-10.2890625 85.77765625 -10.2890625 84.45765625 -10.2890625 83.09765625 C-9.65097656 82.91589844 -9.01289063 82.73414063 -8.35546875 82.546875 C-7.52917969 82.29550781 -6.70289063 82.04414063 -5.8515625 81.78515625 C-5.02785156 81.54152344 -4.20414063 81.29789062 -3.35546875 81.046875 C-2.67355469 80.73363281 -1.99164063 80.42039062 -1.2890625 80.09765625 C3.31744975 66.27811951 0.82308337 48.48907819 0.7734375 34.16015625 C0.76841227 31.62695401 0.76385117 29.0937508 0.75976562 26.56054688 C0.74884154 20.40622864 0.73218461 14.25194705 0.7109375 8.09765625 C0.0509375 8.09765625 -0.6090625 8.09765625 -1.2890625 8.09765625 C-1.2890625 7.43765625 -1.2890625 6.77765625 -1.2890625 6.09765625 C-2.2171875 5.97390625 -3.1453125 5.85015625 -4.1015625 5.72265625 C-7.2890625 5.09765625 -7.2890625 5.09765625 -10.2890625 3.09765625 C-10.2890625 2.43765625 -10.2890625 1.77765625 -10.2890625 1.09765625 C-7.06302705 -0.51536148 -3.54196212 -0.02287974 0 0 Z " fill="#E6E6E6" transform="translate(224.2890625,140.90234375)"/>
<path d="M0 0 C3.58505585 3.07290502 5.38386851 5.02958084 5.90625 9.83984375 C6.20945879 19.25194982 6.20945879 19.25194982 2.625 23.25 C1.965 23.25 1.305 23.25 0.625 23.25 C0.625 23.91 0.625 24.57 0.625 25.25 C-6.12960625 28.28467817 -11.34015511 28.79138376 -18.375 26.25 C-21.20665629 24.40075507 -22.87237497 23.25525005 -24.375 20.25 C-24.5787399 17.62757644 -24.69856725 15.06290797 -24.75 12.4375 C-24.78738281 11.72529297 -24.82476562 11.01308594 -24.86328125 10.27929688 C-24.92992968 6.27668853 -24.56834222 4.49379347 -22.0546875 1.32421875 C-15.29803111 -3.90578787 -7.36152183 -3.8170854 0 0 Z " fill="#FAFAFA" transform="translate(249.375,101.75)"/>
<path d="M0 0 C0.77085937 0.00718552 1.54171875 0.01437103 2.3359375 0.02177429 C3.12742187 0.02223251 3.91890625 0.02269073 4.734375 0.02316284 C6.4088694 0.02618573 8.08336098 0.03407314 9.7578125 0.0464325 C12.32562181 0.06466978 14.89307024 0.06694232 17.4609375 0.06669617 C19.08594063 0.07161211 20.7109413 0.07744076 22.3359375 0.08427429 C23.49222656 0.08594353 23.49222656 0.08594353 24.671875 0.08764648 C30.10379772 0.13617315 30.10379772 0.13617315 32.3359375 1.25224304 C32.6659375 26.99224304 32.9959375 52.73224304 33.3359375 79.25224304 C35.3159375 80.24224304 37.2959375 81.23224304 39.3359375 82.25224304 C37.6484375 83.06474304 37.6484375 83.06474304 35.3359375 83.25224304 C31.45388951 80.18271672 29.96882037 78.08552273 29.3359375 73.25224304 C29.24971069 70.86116403 29.21822186 68.46787067 29.22241211 66.07524109 C29.22226608 65.37225388 29.22212006 64.66926666 29.2219696 63.94497681 C29.22266309 61.63460645 29.23042893 59.32431796 29.23828125 57.01396179 C29.24014744 55.40685063 29.24157039 53.79973889 29.24256897 52.19262695 C29.24637835 47.97255367 29.25619511 43.75251507 29.26727295 39.53245544 C29.2793244 34.46380581 29.28389683 29.39514455 29.28972626 24.32648468 C29.29940774 16.63504672 29.31857533 8.94368477 29.3359375 1.25224304 C18.1159375 1.25224304 6.8959375 1.25224304 -4.6640625 1.25224304 C-4.9940625 2.24224304 -5.3240625 3.23224304 -5.6640625 4.25224304 C-6.3240625 3.59224304 -6.9840625 2.93224304 -7.6640625 2.25224304 C-5.11449763 -0.29732182 -3.47617063 0.01497589 0 0 Z " fill="#333333" transform="translate(625.6640625,140.7477569580078)"/>
<path d="M0 0 C1.16402344 0.00902344 2.32804688 0.01804688 3.52734375 0.02734375 C4.36394531 0.03894531 5.20054687 0.05054688 6.0625 0.0625 C6.0625 0.3925 6.0625 0.7225 6.0625 1.0625 C0.05389451 2.12088127 -5.78377561 2.17912571 -11.875 2.125 C-12.84501953 2.12048828 -13.81503906 2.11597656 -14.81445312 2.11132812 C-17.18887106 2.09963148 -19.56314059 2.08235032 -21.9375 2.0625 C-21.79670517 2.60931427 -21.65591034 3.15612854 -21.510849 3.71951294 C-20.18398132 9.20070318 -19.64488839 14.30269688 -19.62890625 19.9296875 C-19.60378601 21.57292082 -19.57838752 23.21614991 -19.55273438 24.859375 C-19.52384232 27.41372915 -19.49977812 29.96801053 -19.48120117 32.52246094 C-19.45961902 35.01270975 -19.42023953 37.50219988 -19.37890625 39.9921875 C-19.37879044 40.75779999 -19.37867462 41.52341248 -19.3785553 42.31222534 C-19.32511415 46.41192295 -19.32511415 46.41192295 -17.57861328 50.02124023 C-15.2180796 51.51896058 -12.99994819 51.82941969 -10.25 52.25 C-9.25613281 52.40855469 -8.26226563 52.56710938 -7.23828125 52.73046875 C-6.47902344 52.84003906 -5.71976563 52.94960937 -4.9375 53.0625 C-4.9375 53.3925 -4.9375 53.7225 -4.9375 54.0625 C-13.98326659 54.36913616 -13.98326659 54.36913616 -17.9375 52.0625 C-22.55786942 47.44213058 -22.96528806 43.00571838 -23.05102539 36.70947266 C-23.05086865 35.04849419 -23.04531359 33.38750992 -23.03515625 31.7265625 C-23.0337413 30.84721039 -23.03232635 29.96785828 -23.03086853 29.06185913 C-23.02529877 26.27037058 -23.0127519 23.47896406 -23 20.6875 C-22.99498109 18.78776158 -22.99041887 16.8880219 -22.98632812 14.98828125 C-22.97533925 10.34632286 -22.95809557 5.70442531 -22.9375 1.0625 C-7.18109339 -0.07403189 -7.18109339 -0.07403189 0 0 Z " fill="#383838" transform="translate(524.9375,169.9375)"/>
<path d="M0 0 C1.14614777 -0.00637985 2.29229553 -0.0127597 3.47317505 -0.01933289 C5.33859451 -0.02100212 5.33859451 -0.02100212 7.24169922 -0.02270508 C9.17249832 -0.02769768 9.17249832 -0.02769768 11.14230347 -0.03279114 C13.87775507 -0.03878622 16.6131751 -0.04063123 19.34863281 -0.04003906 C22.12213769 -0.03995851 24.89547492 -0.04678173 27.66894531 -0.06054688 C67.818281 -0.25680681 67.818281 -0.25680681 74.42138672 4.14526367 C73.8884903 4.07674698 73.35559387 4.00823029 72.80654907 3.93763733 C64.59593089 2.99209041 56.3859708 2.92158262 48.13232422 2.82885742 C46.57719426 2.80824319 45.02206934 2.78724569 43.46694946 2.7658844 C39.40647505 2.71112457 35.34595401 2.66151535 31.28540039 2.61303711 C27.12886488 2.5624819 22.97239568 2.50697482 18.81591797 2.4519043 C10.6844639 2.34488794 2.55295374 2.24332151 -5.57861328 2.14526367 C-5.57861328 3.13526367 -5.57861328 4.12526367 -5.57861328 5.14526367 C-4.87994141 5.12206055 -4.18126953 5.09885742 -3.46142578 5.07495117 C-2.55134766 5.0569043 -1.64126953 5.03885742 -0.70361328 5.02026367 C0.65376953 4.98545898 0.65376953 4.98545898 2.03857422 4.94995117 C4.42138672 5.14526367 4.42138672 5.14526367 6.42138672 7.14526367 C4.29604013 7.00457171 2.17111143 6.85755446 0.04638672 6.70776367 C-1.13697266 6.62655273 -2.32033203 6.5453418 -3.53955078 6.46166992 C-6.57861328 6.14526367 -6.57861328 6.14526367 -8.57861328 5.14526367 C-8.57861328 3.82526367 -8.57861328 2.50526367 -8.57861328 1.14526367 C-5.45858192 0.10525322 -3.27319696 0.01237828 0 0 Z " fill="#595959" transform="translate(462.57861328125,101.854736328125)"/>
<path d="M0 0 C12.21 0 24.42 0 37 0 C37 0.66 37 1.32 37 2 C37.66 2 38.32 2 39 2 C39 3.65 39 5.3 39 7 C38.34 7 37.68 7 37 7 C37 43.3 37 79.6 37 117 C36.67 117 36.34 117 36 117 C36 78.72 36 40.44 36 1 C24.12 1 12.24 1 0 1 C0 0.67 0 0.34 0 0 Z " fill="#010101" transform="translate(675,102)"/>
<path d="M0 0 C3.5 0.125 3.5 0.125 4.5 1.125 C4.5927833 2.50660115 4.61747043 3.89288038 4.61352539 5.27758789 C4.61344986 6.15842545 4.61337433 7.039263 4.61329651 7.9467926 C4.60813522 8.90407761 4.60297394 9.86136261 4.59765625 10.84765625 C4.5962413 11.82286728 4.59482635 12.79807831 4.59336853 13.80284119 C4.58775133 16.93109143 4.57519593 20.05927123 4.5625 23.1875 C4.55748722 25.30273334 4.55292393 27.41796781 4.54882812 29.53320312 C4.53777631 34.73049296 4.52102146 39.92774145 4.5 45.125 C-1.125 46.25 -1.125 46.25 -4.5 45.125 C-6.11729417 41.44933144 -5.56546005 37.05260325 -5.5 33.125 C-2.13661956 36.48838044 -1.5 39.41335716 -1.5 44.125 C-0.18 44.125 1.14 44.125 2.5 44.125 C2.5 30.265 2.5 16.405 2.5 2.125 C1.18 2.125 -0.14 2.125 -1.5 2.125 C-1.603125 2.90875 -1.70625 3.6925 -1.8125 4.5 C-2.5 7.125 -2.5 7.125 -5.5 9.125 C-4.50398406 0.16085657 -4.50398406 0.16085657 0 0 Z " fill="#130000" transform="translate(199.5,98.875)"/>
<path d="M0 0 C0.33 0 0.66 0 1 0 C1.57852281 14.24880262 1.57852281 14.24880262 -2 20 C-4.62180089 21.88441939 -5.73343924 22 -9 22 C-9 22.99 -9 23.98 -9 25 C5.85 25 20.7 25 36 25 C36 24.01 36 23.02 36 22 C36.66 22 37.32 22 38 22 C38 23.32 38 24.64 38 26 C35.63752032 27.18123984 34.2160385 27.12679683 31.58203125 27.12939453 C30.66768311 27.13254669 29.75333496 27.13569885 28.8112793 27.13894653 C27.32688354 27.13591019 27.32688354 27.13591019 25.8125 27.1328125 C24.29233276 27.13424759 24.29233276 27.13424759 22.74145508 27.13571167 C20.59619078 27.13639296 18.45092442 27.13454226 16.30566406 27.13037109 C13.01362497 27.12502214 9.72172232 27.13031784 6.4296875 27.13671875 C4.34895803 27.13605796 2.26822865 27.13477678 0.1875 27.1328125 C-0.80209717 27.13483673 -1.79169434 27.13686096 -2.8112793 27.13894653 C-3.72562744 27.13579437 -4.63997559 27.13264221 -5.58203125 27.12939453 C-6.38874268 27.12859894 -7.1954541 27.12780334 -8.02661133 27.12698364 C-10 27 -10 27 -12 26 C-12 24.68 -12 23.36 -12 22 C-11.36191406 21.81824219 -10.72382813 21.63648438 -10.06640625 21.44921875 C-9.24011719 21.19785156 -8.41382813 20.94648438 -7.5625 20.6875 C-6.73878906 20.44386719 -5.91507813 20.20023438 -5.06640625 19.94921875 C-4.38449219 19.63597656 -3.70257813 19.32273438 -3 19 C-1.60928794 14.82786381 -1.61327927 10.6321943 -1.39453125 6.2734375 C-1.10159485 1.10159485 -1.10159485 1.10159485 0 0 Z " fill="#303030" transform="translate(226,202)"/>
<path d="M0 0 C12.87 0 25.74 0 39 0 C39 36.63 39 73.26 39 111 C38.67 111 38.34 111 38 111 C38 74.7 38 38.4 38 1 C26.45 1 14.9 1 3 1 C2.67 1.99 2.34 2.98 2 4 C1.34 3.67 0.68 3.34 0 3 C0 2.01 0 1.02 0 0 Z " fill="#B8B8B8" transform="translate(672,103)"/>
<path d="M0 0 C0.99 0 1.98 0 3 0 C3 0.99 3 1.98 3 3 C23.79 3 44.58 3 66 3 C66.33 2.01 66.66 1.02 67 0 C67.99 0.495 67.99 0.495 69 1 C68 4 68 4 66 5 C63.97841074 5.09662554 61.95358414 5.12796512 59.9296875 5.12939453 C58.65496582 5.13254669 57.38024414 5.13569885 56.06689453 5.13894653 C54.669596 5.1371567 53.27229779 5.13510573 51.875 5.1328125 C50.44775374 5.13348585 49.02050759 5.13445615 47.59326172 5.13571167 C44.60057484 5.13718715 41.60791779 5.13503888 38.61523438 5.13037109 C34.77490871 5.12467388 30.93465293 5.12795369 27.09432983 5.13394356 C24.14672314 5.13755319 21.19913307 5.13640873 18.25152588 5.13381577 C16.83530672 5.13314761 15.41908606 5.13397104 14.00286865 5.13629532 C12.02535022 5.13882837 10.04782651 5.13428457 8.0703125 5.12939453 C6.38059326 5.12820114 6.38059326 5.12820114 4.65673828 5.12698364 C2 5 2 5 0 4 C0 2.68 0 1.36 0 0 Z " fill="#010101" transform="translate(454,224)"/>
<path d="M0 0 C0.33 0.66 0.66 1.32 1 2 C0.34 2 -0.32 2 -1 2 C-1 2.66 -1 3.32 -1 4 C-1.66 4 -2.32 4 -3 4 C-3 4.66 -3 5.32 -3 6 C-3.66 6 -4.32 6 -5 6 C-5.33 7.32 -5.66 8.64 -6 10 C-6.66 10 -7.32 10 -8 10 C-8.66 12.31 -9.32 14.62 -10 17 C-10.66 17 -11.32 17 -12 17 C-12 18.32 -12 19.64 -12 21 C-12.66 21 -13.32 21 -14 21 C-14.06058594 21.91523438 -14.12117188 22.83046875 -14.18359375 23.7734375 C-14.26738281 24.96195313 -14.35117188 26.15046875 -14.4375 27.375 C-14.51871094 28.55835938 -14.59992188 29.74171875 -14.68359375 30.9609375 C-15 34 -15 34 -16 36 C-16.09678195 37.86259608 -16.13075842 39.72864231 -16.1328125 41.59375 C-16.13474609 43.26244141 -16.13474609 43.26244141 -16.13671875 44.96484375 C-16.13285156 46.13144531 -16.12898438 47.29804688 -16.125 48.5 C-16.12886719 49.66660156 -16.13273437 50.83320313 -16.13671875 52.03515625 C-16.13542969 53.14761719 -16.13414063 54.26007813 -16.1328125 55.40625 C-16.13168457 56.43041016 -16.13055664 57.45457031 -16.12939453 58.50976562 C-16.16652296 61.00045289 -16.16652296 61.00045289 -15 63 C-14.76970044 65.37123246 -14.58880058 67.74741943 -14.4375 70.125 C-14.35371094 71.40632813 -14.26992187 72.68765625 -14.18359375 74.0078125 C-14.12300781 74.99523437 -14.06242187 75.98265625 -14 77 C-16.90044931 74.09955069 -16.99683765 70.72093177 -17.625 66.8125 C-17.75543701 66.00385498 -17.88587402 65.19520996 -18.02026367 64.36206055 C-20.93440082 44.99721049 -19.1728312 25.09620246 -8.66015625 8.23828125 C-6.16479341 4.873945 -3.32775247 2.52909188 0 0 Z " fill="#1E0000" transform="translate(136,116)"/>
<path d="M0 0 C0.66 0 1.32 0 2 0 C2 2.31 2 4.62 2 7 C2.66 7 3.32 7 4 7 C4 7.66 4 8.32 4 9 C6.475 9.495 6.475 9.495 9 10 C9 11.65 9 13.3 9 15 C6.6699002 16.1650499 5.32752923 16.1209358 2.73388672 16.11352539 C1.41274368 16.11341209 1.41274368 16.11341209 0.06491089 16.11329651 C-0.88721283 16.10813522 -1.83933655 16.10297394 -2.8203125 16.09765625 C-3.79410858 16.0962413 -4.76790466 16.09482635 -5.77120972 16.09336853 C-8.88917073 16.08775973 -12.0070606 16.07520573 -15.125 16.0625 C-17.23567605 16.05748613 -19.34635322 16.05292303 -21.45703125 16.04882812 C-26.63804521 16.03778745 -31.81901752 16.02104073 -37 16 C-37.33 15.34 -37.66 14.68 -38 14 C-37.01 13.01 -36.02 12.02 -35 11 C-35 11.99 -35 12.98 -35 14 C-20.81 14 -6.62 14 8 14 C8 13.01 8 12.02 8 11 C7.236875 10.938125 6.47375 10.87625 5.6875 10.8125 C3 10 3 10 1.1875 7.75 C-0.04572782 4.89410399 -0.26317349 3.07035744 0 0 Z " fill="#4D4D4D" transform="translate(306,213)"/>
<path d="M0 0 C0.66 0 1.32 0 2 0 C2 0.99 2 1.98 2 3 C3.11375 3.28875 4.2275 3.5775 5.375 3.875 C9 5 9 5 11 7 C11 7.99 11 8.98 11 10 C8.21938025 10.92687325 6.57948141 11.12193396 3.7121582 11.11352539 C2.85149246 11.11344986 1.99082672 11.11337433 1.1040802 11.11329651 C0.17899155 11.10813522 -0.74609711 11.10297394 -1.69921875 11.09765625 C-2.64940384 11.0962413 -3.59958893 11.09482635 -4.5785675 11.09336853 C-7.61491029 11.08776875 -10.65117948 11.07521632 -13.6875 11.0625 C-15.74544164 11.05748497 -17.80338444 11.05292207 -19.86132812 11.04882812 C-24.90758046 11.0377994 -29.95377775 11.02053493 -35 11 C-35.33 9.35 -35.66 7.7 -36 6 C-35.67 6.99 -35.34 7.98 -35 9 C-20.81 9 -6.62 9 8 9 C8 8.01 8 7.02 8 6 C7.236875 5.896875 6.47375 5.79375 5.6875 5.6875 C2.81583516 4.95288806 1.76957906 4.3283935 0 2 C0 1.34 0 0.68 0 0 Z " fill="#303030" transform="translate(355,218)"/>
<path d="M0 0 C6.04826484 0.26881177 10.2379446 0.91823823 15 5 C18.62965552 8.99262107 18.43598657 13.24044745 18.296875 18.39453125 C17.93440704 21.57566455 17.14538093 23.60707511 15 26 C14.34 26 13.68 26 13 26 C13 26.66 13 27.32 13 28 C6.21258084 31.0494202 1.07005571 31.49241056 -6 29 C-9.0625 27.3125 -9.0625 27.3125 -11 25 C-11.8125 21.25 -11.8125 21.25 -12 18 C-10 21 -10 21 -9.1875 23 C-7.45303953 25.92119659 -6.17915636 26.70238516 -3 28 C1.45273888 28.62446948 5.92909885 29.08571517 10.01171875 26.9453125 C13.01708425 24.48571556 14.83016279 22.48486248 15.2734375 18.609375 C15.44314791 13.83137434 15.41806945 10.78039632 13.125 6.5 C9.6027095 2.96749997 4.73210838 2.04749584 0 1 C0 0.67 0 0.34 0 0 Z " fill="#222222" transform="translate(237,99)"/>
<path d="M0 0 C0.33 0.99 0.66 1.98 1 3 C16.18 3 31.36 3 47 3 C47 2.34 47 1.68 47 1 C47.66 1 48.32 1 49 1 C49 1.99 49 2.98 49 4 C46.60417654 5.19791173 45.13222462 5.1206744 42.45849609 5.11352539 C41.51767181 5.11344986 40.57684753 5.11337433 39.60751343 5.11329651 C38.58976837 5.10813522 37.57202332 5.10297394 36.5234375 5.09765625 C35.48305328 5.0962413 34.44266907 5.09482635 33.37075806 5.09336853 C30.03880979 5.08775866 26.70692805 5.07520447 23.375 5.0625 C21.11979264 5.05748627 18.86458422 5.05292314 16.609375 5.04882812 C11.07289386 5.03778603 5.53645168 5.02103827 0 5 C-0.5625 3.0625 -0.5625 3.0625 -1 1 C-0.67 0.67 -0.34 0.34 0 0 Z " fill="#2D2D2D" transform="translate(674,224)"/>
<path d="M0 0 C0.33 0.66 0.66 1.32 1 2 C0.35330586 3.34313399 -0.31903578 4.67391178 -1 6 C-3.3697157 12.55156694 -3.5711877 19.06753451 -4 26 C3.26 26 10.52 26 18 26 C18 21.05 18 16.1 18 11 C17.34 11 16.68 11 16 11 C16 8.36 16 5.72 16 3 C19.23366779 6.23366779 19.05205743 9.81887295 19.09765625 14.20703125 C19.09199942 15.74222181 19.07909818 17.27738875 19.0625 18.8125 C19.041875 21.514375 19.02125 24.21625 19 27 C10.75 27 2.5 27 -6 27 C-6 15.66153846 -6 15.66153846 -4.6875 10.6875 C-4.44386719 9.72199219 -4.20023438 8.75648438 -3.94921875 7.76171875 C-2.95983403 4.88313853 -1.6554332 2.54575021 0 0 Z " fill="#585858" transform="translate(833,149)"/>
<path d="M0 0 C3 1 3 1 4 3 C4.11752391 5.15832215 4.1698275 7.32029283 4.19287109 9.48168945 C4.20104858 10.14694641 4.20922607 10.81220337 4.21765137 11.49761963 C4.24249694 13.70283101 4.25901942 15.90797804 4.2734375 18.11328125 C4.27876118 18.86645315 4.28408485 19.61962505 4.28956985 20.39562035 C4.31629832 24.38247027 4.33567378 28.36928892 4.35009766 32.35620117 C4.36674165 36.47234179 4.41151691 40.58768112 4.4624691 44.70351887 C4.49614121 47.86999928 4.50767494 51.03628951 4.51332474 54.20293236 C4.52003784 55.72000436 4.53526175 57.23706382 4.55921555 58.75396156 C4.59087194 60.88001214 4.59090499 63.00390215 4.58349609 65.13012695 C4.59562637 66.94309013 4.59562637 66.94309013 4.60800171 68.79267883 C3.82633974 72.9160899 2.25065025 74.43380027 -1 77 C-3.3125 76.8125 -3.3125 76.8125 -5 76 C-4.21625 75.773125 -3.4325 75.54625 -2.625 75.3125 C0.14030207 74.24907005 0.14030207 74.24907005 1.14788818 71.81567383 C2.11470639 68.6209702 2.25400828 65.97406717 2.25878906 62.63671875 C2.26509338 61.37190674 2.27139771 60.10709473 2.27789307 58.80395508 C2.27431304 57.43180196 2.27021102 56.05965012 2.265625 54.6875 C2.26697336 53.27172784 2.26891533 51.85595613 2.27142334 50.44018555 C2.27436654 47.47798235 2.27010292 44.51590005 2.26074219 41.55371094 C2.24934804 37.76413854 2.25591183 33.97484949 2.26788712 30.18528748 C2.27512748 27.2632841 2.27280781 24.34134747 2.26763153 21.41934204 C2.26630105 20.0223487 2.26792161 18.62534921 2.27259064 17.22836304 C2.27769141 15.27333702 2.26853359 13.31828964 2.25878906 11.36328125 C2.25719788 10.25251221 2.25560669 9.14174316 2.25396729 7.99731445 C1.99612601 4.95427927 1.287871 2.75199632 0 0 Z " fill="#080808" transform="translate(276,147)"/>
<path d="M0 0 C0.33 0 0.66 0 1 0 C1.09900816 5.88984287 1.17153481 11.77919945 1.21972656 17.66967773 C1.23981991 19.67269328 1.26709965 21.67565032 1.30175781 23.6784668 C1.35037611 26.56053108 1.37299152 29.44181866 1.390625 32.32421875 C1.41127014 33.21711105 1.43191528 34.11000336 1.45318604 35.029953 C1.45467504 39.17228605 1.34125656 41.4277777 -0.82128906 45.05395508 C-3.51239089 47.45767232 -5.44810905 47.75782562 -9 48 C-8.01 47.34 -7.02 46.68 -6 46 C-2.74847012 43.54945405 -2.06394352 42.441979 -1.4699707 38.33642578 C-1.43554889 36.87305202 -1.42204658 35.40908628 -1.42578125 33.9453125 C-1.41161667 33.16614471 -1.39745209 32.38697693 -1.38285828 31.584198 C-1.34100797 29.09765854 -1.32574069 26.61184162 -1.3125 24.125 C-1.28333388 21.64563907 -1.24863189 19.16645631 -1.21000671 16.68722534 C-1.18773341 15.14688161 -1.17178522 13.60642911 -1.16316223 12.06594849 C-1.12216567 7.94334392 -0.7977691 4.04580058 0 0 Z " fill="#010101" transform="translate(473,175)"/>
<path d="M0 0 C1.9375 0.375 1.9375 0.375 4 1 C4.33 1.66 4.66 2.32 5 3 C4.34 3 3.68 3 3 3 C3 9.93 3 16.86 3 24 C3.66 24 4.32 24 5 24 C5 26.31 5 28.62 5 31 C-0.625 32.125 -0.625 32.125 -4 31 C-4 29.02 -4 27.04 -4 25 C-4.66 25 -5.32 25 -6 25 C-5.67 23.68 -5.34 22.36 -5 21 C-1 27.75 -1 27.75 -1 30 C-0.01 30 0.98 30 2 30 C2 20.43 2 10.86 2 1 C1.34 0.67 0.68 0.34 0 0 Z " fill="#292929" transform="translate(782,138)"/>
<path d="M0 0 C0.99 0.33 1.98 0.66 3 1 C2.67 1.99 2.34 2.98 2 4 C-19.45 4 -40.9 4 -63 4 C-63 3.67 -63 3.34 -63 3 C-42.21 3 -21.42 3 0 3 C0 2.01 0 1.02 0 0 Z " fill="#656565" transform="translate(520,224)"/>
<path d="M0 0 C0.8353125 0.556875 0.8353125 0.556875 1.6875 1.125 C1.90028058 5.59339215 1.27888085 8.94762526 -0.3125 13.125 C-0.9725 13.125 -1.6325 13.125 -2.3125 13.125 C-2.3125 13.785 -2.3125 14.445 -2.3125 15.125 C-3.6325 15.455 -4.9525 15.785 -6.3125 16.125 C-5.6525 15.485625 -4.9925 14.84625 -4.3125 14.1875 C-1.5239171 9.91748244 -2.01195537 7.15912252 -2.3125 2.125 C-5.2825 5.095 -8.2525 8.065 -11.3125 11.125 C-11.9725 10.795 -12.6325 10.465 -13.3125 10.125 C-12.6525 9.135 -11.9925 8.145 -11.3125 7.125 C-10.6525 7.125 -9.9925 7.125 -9.3125 7.125 C-9.3125 6.465 -9.3125 5.805 -9.3125 5.125 C-8.6525 5.125 -7.9925 5.125 -7.3125 5.125 C-7.3125 3.805 -7.3125 2.485 -7.3125 1.125 C-2.88173077 -1.09038462 -2.88173077 -1.09038462 0 0 Z " fill="#040000" transform="translate(201.3125,198.875)"/>
<path d="M0 0 C0.66 0.33 1.32 0.66 2 1 C-1.48654652 5.19475128 -4.9736414 9.08389253 -9.1875 12.5625 C-12.88182768 15.67577809 -14.88215785 18.67607227 -17 23 C-17.6875 21.3125 -17.6875 21.3125 -18 19 C-16.6875 16.25 -16.6875 16.25 -15 14 C-14.34 14 -13.68 14 -13 14 C-13 13.34 -13 12.68 -13 12 C-12.34 12 -11.68 12 -11 12 C-10.34 10.68 -9.68 9.36 -9 8 C-8.34 8 -7.68 8 -7 8 C-6.6596875 7.13375 -6.6596875 7.13375 -6.3125 6.25 C-4.66961977 3.4336339 -2.60466773 1.91922886 0 0 Z " fill="#800000" transform="translate(110,113)"/>
<path d="M0 0 C0.56589844 0.71414062 1.13179688 1.42828125 1.71484375 2.1640625 C7.95612791 9.90965618 13.89280201 16.51183791 22.5546875 21.5625 C24.8414171 22.90677555 26.91194369 24.36840251 29 26 C21.54580207 24.89518138 14.45257795 20.08907276 9 15 C9 14.34 9 13.68 9 13 C8.34 13 7.68 13 7 13 C7 12.34 7 11.68 7 11 C6.34 11 5.68 11 5 11 C5 10.34 5 9.68 5 9 C4.34 9 3.68 9 3 9 C0.56839395 5.63316085 0 4.26649636 0 0 Z " fill="#110000" transform="translate(92,199)"/>
<path d="M0 0 C0.66 0.33 1.32 0.66 2 1 C-4.4902529 8.53767123 -4.4902529 8.53767123 -7.6875 11.4375 C-10.80649785 14.89368681 -12.32202492 18.69725942 -14 23 C-14.33 23 -14.66 23 -15 23 C-15.22036864 19.14354879 -14.60355101 16.50776784 -13 13 C-12.34 13 -11.68 13 -11 13 C-11 12.01 -11 11.02 -11 10 C-10.34 10 -9.68 10 -9 10 C-9 9.34 -9 8.68 -9 8 C-8.34 8 -7.68 8 -7 8 C-6.731875 7.360625 -6.46375 6.72125 -6.1875 6.0625 C-5 4 -5 4 -2 3 C-2 2.34 -2 1.68 -2 1 C-1.34 0.67 -0.68 0.34 0 0 Z " fill="#444444" transform="translate(820,145)"/>
<path d="M0 0 C0.53190541 1.43344 1.05015258 2.87195367 1.5625 4.3125 C1.85253906 5.11300781 2.14257812 5.91351563 2.44140625 6.73828125 C3 9 3 9 2 12 C1.16180842 10.37750059 0.3295884 8.75191503 -0.5 7.125 C-0.9640625 6.22007812 -1.428125 5.31515625 -1.90625 4.3828125 C-3 2 -3 2 -3 0 C-3.99 0 -4.98 0 -6 0 C-6 6.93 -6 13.86 -6 21 C-6.33 21 -6.66 21 -7 21 C-7 15.06 -7 9.12 -7 3 C-7.66 3 -8.32 3 -9 3 C-9 2.01 -9 1.02 -9 0 C-5.93109813 -1.53445094 -3.29905734 -0.54984289 0 0 Z " fill="#0F0F0F" transform="translate(738,199)"/>
<path d="M0 0 C2.06519184 2.4782302 3.50863353 4.97563699 4.875 7.875 C8.43122461 15.08103408 13.11355763 19.13812413 20 23 C19.01 23.33 18.02 23.66 17 24 C14.73828125 22.63671875 14.73828125 22.63671875 12.3125 20.6875 C11.50425781 20.05199219 10.69601562 19.41648438 9.86328125 18.76171875 C8.94095703 17.88966797 8.94095703 17.88966797 8 17 C8 16.34 8 15.68 8 15 C7.34 15 6.68 15 6 15 C6 14.34 6 13.68 6 13 C5.34 13 4.68 13 4 13 C4 12.01 4 11.02 4 10 C3.34 10 2.68 10 2 10 C2 8.68 2 7.36 2 6 C1.34 6 0.68 6 0 6 C0 4.02 0 2.04 0 0 Z " fill="#141414" transform="translate(805,204)"/>
<path d="M0 0 C0.33 1.32 0.66 2.64 1 4 C14.86 4 28.72 4 43 4 C43 4.33 43 4.66 43 5 C28.48 5 13.96 5 -1 5 C-1.33 4.34 -1.66 3.68 -2 3 C-1.34 2.01 -0.68 1.02 0 0 Z " fill="#000000" transform="translate(270,224)"/>
<path d="M0 0 C0.33 0 0.66 0 1 0 C1.17015625 0.89460937 1.3403125 1.78921875 1.515625 2.7109375 C2.88025955 9.51959287 4.43747181 15.7834528 7.328125 22.109375 C7.54984375 22.73328125 7.7715625 23.3571875 8 24 C7.67 24.66 7.34 25.32 7 26 C6.67 25.01 6.34 24.02 6 23 C5.34 23 4.68 23 4 23 C2.68373308 19.38026598 2 16.90432869 2 13 C1.34 13 0.68 13 0 13 C0 8.71 0 4.42 0 0 Z " fill="#190000" transform="translate(84,173)"/>
<path d="M0 0 C12.54 0 25.08 0 38 0 C38 0.33 38 0.66 38 1 C26.45 1 14.9 1 3 1 C2.67 1.99 2.34 2.98 2 4 C1.34 3.67 0.68 3.34 0 3 C0 2.01 0 1.02 0 0 Z " fill="#989898" transform="translate(672,103)"/>
<path d="M0 0 C0.99 0.495 0.99 0.495 2 1 C4.06194159 8.59481817 4.87690276 16.52005283 2 24 C1.34 24.33 0.68 24.66 0 25 C0 16.75 0 8.5 0 0 Z " fill="#404040" transform="translate(559,124)"/>
<path d="M0 0 C0.66 0.33 1.32 0.66 2 1 C-1.72346836 5.42094803 -5.29521038 9.57833482 -10 13 C-10.33 12.01 -10.66 11.02 -11 10 C-10.34 10 -9.68 10 -9 10 C-9 9.34 -9 8.68 -9 8 C-8.34 8 -7.68 8 -7 8 C-6.773125 7.4225 -6.54625 6.845 -6.3125 6.25 C-4.66961977 3.4336339 -2.60466773 1.91922886 0 0 Z " fill="#6F6F6F" transform="translate(394,144)"/>
<path d="M0 0 C0.33 0 0.66 0 1 0 C1 2.31 1 4.62 1 7 C0.01 7.33 -0.98 7.66 -2 8 C-2 8.66 -2 9.32 -2 10 C-2.66 10 -3.32 10 -4 10 C-4.66 11.32 -5.32 12.64 -6 14 C-6.66 14 -7.32 14 -8 14 C-8 14.66 -8 15.32 -8 16 C-8.66 15.67 -9.32 15.34 -10 15 C-9.44570313 14.25234375 -8.89140625 13.5046875 -8.3203125 12.734375 C-7.59585938 11.74953125 -6.87140625 10.7646875 -6.125 9.75 C-5.40570312 8.77546875 -4.68640625 7.8009375 -3.9453125 6.796875 C-2.39017775 4.56097846 -1.11795777 2.47127507 0 0 Z " fill="#131313" transform="translate(873,206)"/>
<path d="M0 0 C3.36338044 3.36338044 4 6.28835716 4 11 C5.32 11 6.64 11 8 11 C8 11.66 8 12.32 8 13 C5.69 12.67 3.38 12.34 1 12 C-0.3271261 8.0186217 -0.06915913 4.14954773 0 0 Z " fill="#150000" transform="translate(194,132)"/>
<path d="M0 0 C1.98 0.99 1.98 0.99 4 2 C4 2.99 4 3.98 4 5 C4.66 5 5.32 5 6 5 C6 5.99 6 6.98 6 8 C6.66 8 7.32 8 8 8 C9.26237731 10.52475462 9.09856404 12.31200466 9.0625 15.125 C9.05347656 16.03507812 9.04445313 16.94515625 9.03515625 17.8828125 C9.02355469 18.58148438 9.01195312 19.28015625 9 20 C8.67 20 8.34 20 8 20 C7.75765625 19.14277344 7.5153125 18.28554687 7.265625 17.40234375 C5.4185725 11.10105309 3.58974195 5.512818 0 0 Z " fill="#0F0F0F" transform="translate(865,150)"/>
<path d="M0 0 C0.33 0.66 0.66 1.32 1 2 C0.35330586 3.34313399 -0.31903578 4.67391178 -1 6 C-3.3576147 12.51811122 -3.60671149 19.11745113 -4 26 C-4.33 26 -4.66 26 -5 26 C-5.44144135 16.80330526 -5.57930733 9.27585662 -1 1 C-0.67 0.67 -0.34 0.34 0 0 Z " fill="#141414" transform="translate(833,149)"/>
<path d="M0 0 C0.66 0 1.32 0 2 0 C1.79503906 1.09957031 1.59007813 2.19914063 1.37890625 3.33203125 C-0.12560098 11.54037736 -1.47749439 19.65792767 -2 28 C-2.33 28 -2.66 28 -3 28 C-3.32125023 7.54706861 -3.32125023 7.54706861 0 0 Z " fill="#070000" transform="translate(86,145)"/>
<path d="M0 0 C3.16685549 2.67964695 4.82455737 4.43239149 6.0625 8.4375 C5.98610044 12.79227483 4.69175108 14.65570321 2 18 C1.34 17.67 0.68 17.34 0 17 C0.33 16.34 0.66 15.68 1 15 C1.66 15 2.32 15 3 15 C3 13.68 3 12.36 3 11 C3.66 11 4.32 11 5 11 C4.34 10.01 3.68 9.02 3 8 C3 6.68 3 5.36 3 4 C2.34 4 1.68 4 1 4 C0.67 2.68 0.34 1.36 0 0 Z " fill="#242424" transform="translate(764,204)"/>
<path d="M0 0 C0 3 0 3 -1.96875 5.26171875 C-2.8040625 6.06222656 -3.639375 6.86273438 -4.5 7.6875 C-5.3353125 8.49574219 -6.170625 9.30398437 -7.03125 10.13671875 C-7.6809375 10.75160156 -8.330625 11.36648437 -9 12 C-9.66 11.67 -10.32 11.34 -11 11 C-10.34 10.01 -9.68 9.02 -9 8 C-8.34 8 -7.68 8 -7 8 C-7 7.34 -7 6.68 -7 6 C-6.34 6 -5.68 6 -5 6 C-5 4.68 -5 3.36 -5 2 C-3.35 1.34 -1.7 0.68 0 0 Z " fill="#200000" transform="translate(199,198)"/>
<path d="M0 0 C6.0777453 0.27012201 10.15606163 0.9830755 15 5 C15.99 6.485 15.99 6.485 17 8 C16.34 8.66 15.68 9.32 15 10 C14.38125 9.071875 13.7625 8.14375 13.125 7.1875 C9.68726647 2.97253976 5.12940047 2.1354401 0 1 C0 0.67 0 0.34 0 0 Z " fill="#161616" transform="translate(237,99)"/>
<path d="M0 0 C3.88997191 1.49746706 5.46948052 3.70422078 7.75 7.125 C8.67039063 8.49011719 8.67039063 8.49011719 9.609375 9.8828125 C10.29773438 10.93082031 10.29773438 10.93082031 11 12 C10.67 12.66 10.34 13.32 10 14 C9.67 13.01 9.34 12.02 9 11 C8.34 11 7.68 11 7 11 C7 10.01 7 9.02 7 8 C6.34 8 5.68 8 5 8 C2 4.53846154 2 4.53846154 2 2 C1.34 2 0.68 2 0 2 C0 1.34 0 0.68 0 0 Z " fill="#170000" transform="translate(183,118)"/>
<path d="M0 0 C1.32 0.33 2.64 0.66 4 1 C4 1.66 4 2.32 4 3 C4.598125 3.2475 5.19625 3.495 5.8125 3.75 C8.36513531 5.20864875 9.56732558 6.43626682 11 9 C10.57421875 11.1328125 10.57421875 11.1328125 10 13 C9.61328125 12.48050781 9.2265625 11.96101563 8.828125 11.42578125 C5.94557801 7.5657369 3.03853097 3.73973042 0 0 Z " fill="#111111" transform="translate(548,111)"/>
<path d="M0 0 C1.134375 0.020625 2.26875 0.04125 3.4375 0.0625 C3.4375 0.3925 3.4375 0.7225 3.4375 1.0625 C1.7875 1.0625 0.1375 1.0625 -1.5625 1.0625 C-1.665625 2.01125 -1.76875 2.96 -1.875 3.9375 C-2.5625 7.0625 -2.5625 7.0625 -5.5625 9.0625 C-4.56445312 0.08007812 -4.56445312 0.08007812 0 0 Z " fill="#020000" transform="translate(199.5625,98.9375)"/>
<path d="M0 0 C0.53625 0.2475 1.0725 0.495 1.625 0.75 C-0.0146875 1.554375 -0.0146875 1.554375 -1.6875 2.375 C-5.41967844 4.47529475 -6.81760141 6.719086 -8.375 10.75 C-8.705 10.75 -9.035 10.75 -9.375 10.75 C-9.25 7.5 -9.25 7.5 -8.375 3.75 C-3.71617647 -0.39117647 -3.71617647 -0.39117647 0 0 Z " fill="#101010" transform="translate(234.375,100.25)"/>
<path d="M0 0 C0.66 0 1.32 0 2 0 C2 0.99 2 1.98 2 3 C3.11375 3.28875 4.2275 3.5775 5.375 3.875 C9 5 9 5 11 7 C11 7.99 11 8.98 11 10 C10.01 10 9.02 10 8 10 C8 8.68 8 7.36 8 6 C7.236875 5.896875 6.47375 5.79375 5.6875 5.6875 C2.81583516 4.95288806 1.76957906 4.3283935 0 2 C0 1.34 0 0.68 0 0 Z " fill="#191919" transform="translate(355,218)"/>
<path d="M0 0 C2.97837763 2.55289511 4.29394232 5.51370822 6 9 C6.66 9.66 7.32 10.32 8 11 C5.03 10.505 5.03 10.505 2 10 C2 8.02 2 6.04 2 4 C1.34 4 0.68 4 0 4 C0 2.68 0 1.36 0 0 Z " fill="#0C0C0C" transform="translate(776,159)"/>
<path d="M0 0 C0.99 0 1.98 0 3 0 C3 1.32 3 2.64 3 4 C3.69867188 3.97679688 4.39734375 3.95359375 5.1171875 3.9296875 C6.02726562 3.91164063 6.93734375 3.89359375 7.875 3.875 C9.23238281 3.84019531 9.23238281 3.84019531 10.6171875 3.8046875 C13 4 13 4 15 6 C12.87465341 5.85930804 10.74972471 5.71229079 8.625 5.5625 C7.44164062 5.48128906 6.25828125 5.40007812 5.0390625 5.31640625 C2 5 2 5 0 4 C0 2.68 0 1.36 0 0 Z " fill="#121212" transform="translate(454,103)"/>
<path d="M0 0 C0.99 0.33 1.98 0.66 3 1 C2.67 1.99 2.34 2.98 2 4 C-3.94 4 -9.88 4 -16 4 C-16 3.67 -16 3.34 -16 3 C-10.72 3 -5.44 3 0 3 C0 2.01 0 1.02 0 0 Z " fill="#404040" transform="translate(520,224)"/>
<path d="M0 0 C1.32 0.33 2.64 0.66 4 1 C3.01 1 2.02 1 1 1 C1 1.99 1 2.98 1 4 C-4.625 6.125 -4.625 6.125 -8 5 C-8 4.01 -8 3.02 -8 2 C-7.34 2 -6.68 2 -6 2 C-6 2.66 -6 3.32 -6 4 C-4.68 4 -3.36 4 -2 4 C-1.34 2.68 -0.68 1.36 0 0 Z " fill="#282828" transform="translate(739,225)"/>
<path d="M0 0 C0.8125 1.6875 0.8125 1.6875 1 4 C-1.1875 6.8125 -1.1875 6.8125 -4 9 C-6.3125 8.8125 -6.3125 8.8125 -8 8 C-6.824375 7.6596875 -6.824375 7.6596875 -5.625 7.3125 C-2.78943005 6.22711327 -2.78943005 6.22711327 -1.75 3.4375 C-1.5025 2.633125 -1.255 1.82875 -1 1 C-0.67 0.67 -0.34 0.34 0 0 Z " fill="#282828" transform="translate(279,215)"/>
<path d="M0 0 C0.75 1.6875 0.75 1.6875 1 4 C-0.5625 6.6875 -0.5625 6.6875 -3 9 C-6.25 9.8125 -6.25 9.8125 -9 10 C-8.01 9.34 -7.02 8.68 -6 8 C-2.19090197 4.53877143 -2.19090197 4.53877143 0 0 Z " fill="#212121" transform="translate(473,213)"/>
<path d="M0 0 C0.66 0 1.32 0 2 0 C0.18690997 3.77727089 -1.9073259 7.37269822 -4 11 C-4.6875 9.3125 -4.6875 9.3125 -5 7 C-3.6875 4.25 -3.6875 4.25 -2 2 C-1.34 2 -0.68 2 0 2 C0 1.34 0 0.68 0 0 Z " fill="#120000" transform="translate(97,125)"/>
<path d="M0 0 C0.66 0 1.32 0 2 0 C1 3 1 3 -0.7421875 4.203125 C-1.44601562 4.54859375 -2.14984375 4.8940625 -2.875 5.25 C-3.57367187 5.60578125 -4.27234375 5.9615625 -4.9921875 6.328125 C-7 7 -7 7 -10 6 C-9.36191406 5.65066406 -8.72382812 5.30132812 -8.06640625 4.94140625 C-7.24011719 4.48636719 -6.41382813 4.03132812 -5.5625 3.5625 C-4.73878906 3.11003906 -3.91507813 2.65757812 -3.06640625 2.19140625 C-1.07691202 1.16337603 -1.07691202 1.16337603 0 0 Z " fill="#171717" transform="translate(861,222)"/>
</svg>
