<?xml version="1.0" standalone="no"?>
<!DOCTYPE svg PUBLIC "-//W3C//DTD SVG 20010904//EN"
 "http://www.w3.org/TR/2001/REC-SVG-20010904/DTD/svg10.dtd">
<svg version="1.0" xmlns="http://www.w3.org/2000/svg"
 width="600.000000pt" height="220.000000pt" viewBox="0 0 600.000000 220.000000"
 preserveAspectRatio="xMidYMid meet">
<g transform="translate(0.000000,220.000000) scale(0.100000,-0.100000)"
fill="#000000" stroke="none">
<path d="M904 1578 c-57 -8 -137 -40 -160 -63 -9 -8 -19 -13 -24 -10 -17 11
-141 -127 -146 -163 -2 -8 -7 -18 -12 -21 -5 -3 -12 -17 -15 -31 -4 -14 -13
-47 -22 -73 -9 -32 -10 -45 -3 -41 8 5 9 1 3 -12 -4 -10 -7 -38 -6 -62 2 -52
38 -172 51 -172 6 0 9 -4 8 -9 -4 -11 71 -111 82 -111 5 0 15 -7 23 -15 8 -8
21 -16 28 -17 7 -2 21 -11 31 -20 10 -10 28 -18 41 -18 13 0 28 -5 33 -10 16
-16 227 -25 261 -12 16 6 39 13 53 16 14 3 38 17 54 31 16 14 32 25 36 25 4 0
24 15 44 34 37 36 47 74 26 106 -7 11 -10 4 -10 -27 0 -37 -5 -46 -42 -76
-101 -82 -203 -109 -341 -89 -231 34 -369 199 -355 427 6 94 48 185 120 261
122 129 294 165 479 100 82 -28 106 -26 120 10 20 55 29 21 29 -117 0 -103 -3
-140 -12 -137 -6 2 -17 21 -24 41 -38 110 -132 181 -239 180 -158 0 -251 -114
-262 -318 -11 -201 57 -353 172 -385 57 -16 160 -9 209 15 49 23 144 110 133
122 -5 4 -14 0 -21 -10 -7 -9 -19 -17 -26 -17 -7 0 -10 -3 -7 -6 4 -4 -13 -22
-36 -40 -46 -36 -108 -54 -190 -54 -43 0 -60 6 -101 35 -71 50 -107 133 -113
266 -3 56 -1 111 5 130 6 19 13 45 16 59 11 62 67 147 88 133 6 -3 8 -1 5 4
-16 26 142 57 183 36 14 -7 33 -13 43 -13 10 0 20 -7 23 -15 4 -8 10 -13 14
-10 4 2 16 -7 26 -21 11 -15 24 -32 31 -39 7 -7 9 -15 6 -19 -4 -3 -1 -6 5 -6
6 0 13 -13 17 -29 9 -40 40 -68 59 -52 11 9 14 44 15 149 1 125 0 138 -18 149
-16 10 -23 9 -40 -6 -11 -10 -18 -21 -14 -25 14 -14 -45 -5 -97 15 -67 25
-168 37 -236 27z"/>
<path d="M1472 1577 c-26 -12 -62 -75 -62 -107 0 -27 23 -69 53 -97 30 -27
101 -26 135 2 42 35 62 114 36 140 -8 7 -14 18 -14 24 0 18 -63 51 -95 50 -16
0 -40 -5 -53 -12z m119 -46 c20 -20 29 -39 29 -61 0 -22 -9 -41 -29 -61 -37
-37 -79 -38 -120 -3 -25 20 -31 34 -31 64 0 30 6 44 31 64 41 35 83 34 120 -3z"/>
<path d="M2899 1548 c-10 -19 -8 -25 16 -46 17 -14 36 -22 47 -19 11 3 21 0
24 -8 3 -8 6 -158 7 -334 l2 -321 -30 -15 c-18 -8 -31 -10 -33 -4 -4 10 -42
-28 -42 -42 0 -4 12 -17 26 -28 25 -20 37 -21 208 -17 99 2 188 6 198 10 27
12 29 43 2 61 -13 8 -29 15 -37 15 -7 0 -21 6 -31 13 -16 11 -18 29 -17 132 1
66 5 123 9 127 4 4 39 9 77 11 39 3 89 12 112 20 42 16 126 67 109 67 -4 0 2
9 15 21 13 11 18 17 10 13 -7 -4 -4 6 8 23 34 45 40 132 12 178 -11 20 -15 33
-9 29 7 -3 -11 17 -41 45 -30 28 -58 51 -63 51 -5 0 -6 4 -3 10 3 5 0 7 -7 5
-8 -3 -33 1 -57 10 -34 12 -93 15 -272 15 -225 0 -228 0 -240 -22z m523 -28
c101 -31 158 -101 158 -193 -1 -128 -101 -206 -277 -215 l-93 -5 0 -147 c0
-165 4 -175 74 -187 87 -14 21 -23 -169 -23 -194 0 -258 10 -161 24 24 4 50
14 58 23 10 13 13 86 13 349 0 374 3 361 -74 371 -22 3 -41 10 -41 14 0 5 101
9 224 9 194 0 232 -3 288 -20z"/>
<path d="M3210 1326 l0 -176 28 0 c15 0 46 9 69 19 56 26 76 66 76 156 0 112
-32 153 -130 170 l-43 7 0 -176z m115 106 c23 -20 25 -29 25 -96 0 -82 -13
-122 -42 -132 -10 -3 -16 -9 -14 -13 3 -4 -7 -7 -22 -6 l-27 0 -3 138 -3 138
30 -3 c17 -2 42 -14 56 -26z"/>
<path d="M4295 1560 c-18 -29 -13 -52 15 -68 l30 -17 1 -280 c0 -154 2 -303 2
-331 1 -33 -2 -50 -9 -47 -5 2 -19 -5 -29 -17 -23 -25 -40 -25 -68 1 -21 20
-22 27 -24 256 -3 290 6 273 -136 273 -85 0 -103 -3 -129 -22 l-30 -21 36 -31
36 -31 0 -155 c1 -85 1 -159 0 -165 0 -5 -11 -22 -24 -38 -25 -29 -56 -28 -57
2 0 9 -1 110 -3 224 -4 251 5 236 -142 237 -87 0 -103 -3 -122 -20 -12 -12
-22 -23 -22 -26 0 -3 13 -17 30 -32 l29 -27 2 -179 c1 -123 5 -189 15 -211 7
-18 10 -36 6 -41 -4 -5 -5 -8 -3 -7 2 2 24 -15 47 -37 24 -22 52 -41 61 -41
68 -5 111 -4 107 3 -5 7 18 12 39 9 4 0 7 4 7 9 0 6 7 10 16 10 9 0 12 5 8 12
-4 7 8 1 27 -13 30 -21 44 -24 127 -24 90 0 95 1 118 28 15 18 24 23 24 13 0
-8 9 -18 20 -21 11 -4 18 -9 16 -13 -6 -10 166 -15 235 -7 82 10 104 53 43 85
l-24 13 0 362 c0 338 -1 363 -18 378 -15 14 -41 17 -135 17 -66 0 -118 -4
-122 -10z m245 -387 c0 -203 4 -373 8 -379 4 -6 17 -14 30 -18 12 -4 22 -12
22 -17 0 -10 -283 -13 -293 -3 -4 4 8 14 26 23 l32 16 3 335 c1 184 0 345 -3
356 -3 13 -16 25 -30 28 -14 4 -25 11 -25 16 0 6 46 10 115 10 l115 0 0 -367z
m-660 -101 c0 -211 1 -230 19 -246 25 -23 64 -12 96 26 25 29 25 32 25 215 l0
185 -30 11 c-16 6 -30 17 -30 24 0 10 28 13 117 13 l116 0 -6 -167 c-3 -93 -3
-208 0 -257 6 -86 7 -89 34 -100 16 -6 29 -14 29 -18 0 -4 -52 -8 -115 -8
l-115 0 0 36 0 37 -27 -28 c-62 -61 -156 -79 -210 -39 -62 46 -68 69 -71 289
-3 116 -8 205 -14 213 -6 6 -19 12 -29 12 -11 0 -19 7 -19 15 0 12 19 15 115
15 l115 0 0 -228z"/>
<path d="M736 1353 c-6 -14 -5 -15 5 -6 7 7 10 15 7 18 -3 3 -9 -2 -12 -12z"/>
<path d="M1550 1333 c0 -4 -36 -7 -81 -5 -66 3 -84 0 -100 -14 -26 -23 -24
-33 12 -63 l31 -26 -1 -203 c0 -161 -3 -206 -14 -217 -8 -8 -17 -12 -20 -9 -9
10 -27 -34 -21 -50 9 -25 48 -31 186 -31 107 0 130 3 144 17 16 16 18 16 31 0
8 -9 12 -12 9 -5 -4 7 5 6 24 -4 24 -12 53 -14 138 -9 150 8 145 8 267 3 132
-6 172 -1 186 24 11 22 -4 59 -25 59 -22 0 -26 24 -27 183 -1 241 -12 282 -90
335 -29 20 -43 23 -97 20 -37 -2 -67 -9 -71 -17 -5 -7 -10 -12 -12 -11 -2 1
-12 -2 -22 -6 -11 -4 -25 0 -36 10 -14 13 -40 16 -122 16 -92 0 -107 -2 -122
-20 -22 -26 -22 -25 8 -52 24 -23 24 -25 27 -233 l3 -210 -29 -18 c-28 -18
-29 -18 -54 5 -21 18 -23 19 -12 3 14 -18 14 -19 -2 -7 -15 12 -17 41 -18 255
-1 229 -2 242 -21 260 -11 10 -23 16 -26 13 -3 -3 -14 -1 -24 5 -11 5 -19 6
-19 2z m660 -58 c43 -42 50 -79 50 -282 0 -170 1 -184 20 -203 11 -11 25 -20
30 -20 6 0 10 -4 10 -10 0 -6 -53 -10 -140 -10 -77 0 -140 4 -140 8 0 5 11 14
24 20 33 15 39 61 35 260 -3 116 -8 163 -18 175 -22 27 -61 20 -98 -15 l-33
-32 0 -157 c0 -187 5 -217 36 -231 13 -6 24 -15 24 -20 0 -4 -63 -8 -140 -8
-87 0 -140 4 -140 10 0 6 5 10 10 10 6 0 19 9 30 20 19 19 20 33 20 223 0 111
-3 212 -6 225 -4 12 -17 25 -30 28 -13 3 -24 12 -24 20 0 11 23 14 110 14
l110 0 0 -36 0 -36 33 28 c49 42 86 55 145 51 41 -3 59 -10 82 -32z m-600
-220 c0 -232 1 -246 20 -265 11 -11 27 -20 35 -20 8 0 15 -4 15 -10 0 -6 -57
-10 -150 -10 -82 0 -150 4 -150 8 0 4 13 13 29 19 39 14 44 48 39 280 -3 189
-9 213 -49 213 -11 0 -19 7 -19 15 0 12 19 15 115 15 l115 0 0 -245z m450 133
c1 -7 1 -93 1 -191 0 -159 -2 -181 -19 -204 -14 -20 -21 -23 -27 -13 -6 9 -4
11 6 5 8 -5 1 4 -15 19 l-28 27 4 168 c2 122 7 173 17 185 16 19 61 22 61 4z"/>
<path d="M2547 1320 c-21 -11 -43 -17 -49 -14 -6 4 -8 3 -4 -4 3 -6 -13 -29
-36 -52 -24 -23 -43 -47 -44 -53 -1 -7 -9 -30 -19 -52 -47 -106 -21 -271 57
-360 34 -39 85 -76 103 -75 3 0 6 0 8 -1 1 -1 28 -2 60 -4 57 -3 133 15 120
28 -3 4 1 7 11 7 34 0 131 126 124 162 -2 7 -11 19 -21 27 -19 14 -31 7 -91
-55 -31 -31 -91 -25 -123 13 -28 31 -45 67 -49 101 -3 25 -13 23 141 24 62 0
117 5 127 12 14 8 18 24 18 63 0 28 -5 55 -10 58 -6 4 -8 10 -5 15 3 5 0 12
-6 15 -5 4 -8 14 -5 22 3 8 2 11 -3 8 -5 -3 -13 5 -16 17 -10 32 -33 57 -84
90 -57 36 -145 39 -204 8z m176 -24 c65 -28 118 -111 132 -208 l6 -48 -152 0
-152 0 6 -40 c7 -55 46 -130 80 -154 20 -15 43 -21 75 -20 41 1 50 6 84 44 55
62 70 40 20 -30 -120 -173 -352 -130 -407 75 -21 75 -16 176 10 238 22 52 82
117 130 138 48 22 123 24 168 5z"/>
<path d="M2591 1244 c-11 -14 -23 -42 -26 -63 -3 -20 -8 -51 -11 -68 l-5 -33
81 0 80 0 0 63 c0 80 -26 127 -69 127 -20 0 -36 -9 -50 -26z m68 -13 c13 -11
20 -25 16 -30 -3 -6 -3 -17 1 -23 5 -7 8 -24 8 -38 0 -23 -4 -25 -48 -28 l-48
-3 5 51 c3 29 13 61 23 71 21 23 16 23 43 0z"/>
<path d="M2565 861 c-3 -5 -2 -12 3 -15 5 -3 9 1 9 9 0 17 -3 19 -12 6z"/>
<path d="M4758 1333 c-10 -2 -18 -9 -18 -14 0 -6 -4 -7 -10 -4 -5 3 -10 1 -10
-6 0 -7 -3 -9 -7 -6 -17 17 -83 -108 -83 -158 0 -36 38 -111 70 -138 16 -14
26 -28 22 -32 -4 -4 0 -5 8 -3 8 2 14 -2 13 -8 -1 -5 15 -19 35 -29 20 -11 45
-26 54 -35 9 -8 24 -21 33 -28 9 -8 15 -24 13 -35 -5 -34 -53 -35 -87 -3 -15
15 -30 24 -33 21 -2 -3 -5 1 -5 8 0 7 -12 31 -28 55 -27 41 -57 54 -71 30 -5
-7 -2 -9 7 -4 8 4 6 1 -4 -7 -14 -12 -17 -27 -14 -90 1 -42 -1 -73 -6 -70 -12
7 11 -37 30 -59 14 -15 18 -16 43 -3 23 12 34 12 81 0 65 -18 133 -20 124 -4
-4 6 -1 9 6 8 23 -5 76 29 103 64 14 18 31 56 37 83 10 43 9 59 -5 102 -10 29
-22 52 -27 52 -5 0 -9 6 -9 13 0 14 -71 73 -83 69 -5 -1 -6 2 -3 7 3 5 -5 12
-19 15 -14 4 -25 10 -25 15 0 5 -16 19 -35 31 -43 27 -49 65 -10 65 14 0 25
-4 25 -8 0 -5 5 -5 10 -2 6 3 10 1 10 -4 0 -6 6 -10 13 -9 6 2 11 -5 9 -14 -1
-9 3 -20 9 -24 8 -4 9 -3 5 4 -4 7 -4 12 -1 12 3 0 15 -20 26 -44 13 -31 26
-45 44 -48 21 -4 26 0 35 28 9 27 9 111 0 134 -1 3 -2 13 -1 22 3 26 -18 58
-37 58 -9 0 -25 -7 -35 -14 -16 -12 -22 -12 -45 0 -25 13 -116 17 -154 7z
m152 -39 c38 -15 42 -15 60 1 11 10 22 16 24 14 2 -2 7 -46 11 -96 9 -105 0
-117 -35 -50 -30 57 -56 84 -96 97 -40 14 -70 6 -85 -21 -18 -34 -1 -56 100
-130 120 -89 146 -124 146 -193 -1 -108 -72 -182 -174 -179 -31 0 -75 8 -98
16 -41 15 -43 15 -58 -5 -8 -12 -17 -20 -19 -17 -2 2 -8 48 -12 102 -8 111 3
125 38 51 51 -110 198 -144 198 -45 0 34 -16 51 -117 125 -92 68 -121 105
-129 166 -7 57 25 125 75 157 41 28 112 30 171 7z"/>
<path d="M4783 1055 c0 -8 4 -12 9 -9 5 3 6 10 3 15 -9 13 -12 11 -12 -6z"/>
<path d="M5290 1327 c-100 -53 -145 -103 -175 -196 -26 -77 -17 -209 18 -277
32 -62 74 -114 93 -114 8 0 14 -5 14 -12 0 -6 3 -8 6 -5 4 3 15 2 26 -4 24
-13 166 -21 147 -8 -11 8 -9 9 8 7 12 -2 32 4 45 12 41 28 104 95 123 132 19
36 19 38 0 57 -25 29 -32 27 -74 -19 -26 -29 -46 -41 -73 -44 -21 -2 -40 0
-44 5 -3 5 -9 7 -14 4 -4 -3 -16 8 -26 23 -41 60 -57 122 -31 122 6 1 64 1
128 2 144 1 154 6 146 80 -12 101 -40 152 -120 216 -43 33 -150 44 -197 19z
m181 -46 c66 -41 91 -89 113 -208 l6 -33 -154 0 -153 0 8 -44 c18 -98 65 -159
133 -172 42 -7 71 7 113 54 17 20 35 33 39 29 11 -11 -12 -53 -57 -102 -104
-113 -279 -90 -354 46 -28 51 -30 61 -30 164 0 103 2 113 29 163 68 121 205
168 307 103z"/>
<path d="M5317 1247 c-19 -30 -37 -93 -37 -134 l0 -33 81 0 82 0 -5 63 c-3 35
-13 77 -22 95 -14 26 -22 32 -50 32 -24 0 -38 -7 -49 -23z m84 -31 c1 -6 3
-32 5 -58 l4 -48 -45 0 c-29 0 -45 5 -46 13 -4 40 -1 56 15 89 17 33 21 35 42
26 13 -6 24 -16 25 -22z"/>
</g>
</svg>
